<svg width="192" height="338" viewBox="0 0 192 338" fill="none" xmlns="http://www.w3.org/2000/svg">
<path d="M0 17C0 14.2386 2.23858 12 5 12H180V326H5C2.23858 326 0 323.761 0 321V17Z" fill="url(#paint3_linear)"/>
<path d="M90.9448 209.583C74.4392 209.583 61.0586 195.511 61.0586 178.154C61.0586 163.933 72.9185 146.558 82.077 135.976C86.4132 130.966 94.6077 127 94.6077 127C94.6077 127 90.4082 147.25 101.8 155.293C111.912 162.432 119.353 171.72 119.353 179.891C119.353 196.252 107.451 209.583 90.9452 209.583L90.9448 209.583Z" fill="#B13AF0"/>
<path d="M192 12C192 18.6274 186.627 24 180 24C173.373 24 168 18.6274 168 12C168 5.37256 173.373 0 180 0C186.627 0 192 5.37256 192 12Z" fill="#121214"/>
<path d="M176 53C176 50.791 177.791 49 180 49C182.209 49 184 50.791 184 53V77C184 79.209 182.209 81 180 81C177.791 81 176 79.209 176 77V53Z" fill="#121214"/>
<path d="M180 101C177.791 101 176 102.791 176 105V129C176 131.209 177.791 133 180 133C182.209 133 184 131.209 184 129V105C184 102.791 182.209 101 180 101Z" fill="#121214"/>
<path d="M180 153C177.791 153 176 154.791 176 157V181C176 183.209 177.791 185 180 185C182.209 185 184 183.209 184 181V157C184 154.791 182.209 153 180 153Z" fill="#121214"/>
<path d="M180 205C177.791 205 176 206.791 176 209V233C176 235.209 177.791 237 180 237C182.209 237 184 235.209 184 233V209C184 206.791 182.209 205 180 205Z" fill="#121214"/>
<path d="M176 261C176 258.791 177.791 257 180 257C182.209 257 184 258.791 184 261V285C184 287.209 182.209 289 180 289C177.791 289 176 287.209 176 285V261Z" fill="#121214"/>
<path d="M180 338C186.627 338 192 332.627 192 326C192 319.373 186.627 314 180 314C173.373 314 168 319.373 168 326C168 332.627 173.373 338 180 338Z" fill="#121214"/>
<defs>
<linearGradient id="paint3_linear" x1="-33.5" y1="-75.5" x2="331.725" y2="183.767" gradientUnits="userSpaceOnUse">
<stop stop-color="#2E2340"/>
<stop offset="1" stop-color="#121214"/>
</linearGradient>
</defs>
</svg>
