<svg width="200" height="222" viewBox="0 0 200 222" fill="none" xmlns="http://www.w3.org/2000/svg">
<rect width="200" height="222" rx="5" fill="#11251C"/>
<path d="M66.1206 173.319H69.3683V189.003H66.1206V173.319Z" fill="white"/>
<path d="M78.6473 187.153C77.3482 187.153 76.1883 186.968 75.1676 186.552C74.1933 186.135 73.4046 185.58 72.8478 184.794C72.2911 184.007 72.0127 183.082 72.0127 181.971C72.0127 180.907 72.2911 179.936 72.8014 179.149C73.3582 178.363 74.1005 177.761 75.1212 177.299C76.0955 176.882 77.3018 176.651 78.6473 176.651C79.0185 176.651 79.3896 176.697 79.7144 176.743C80.0856 176.79 80.4103 176.836 80.7351 176.928L86.8594 176.975V179.334C86.0242 179.334 85.1891 179.242 84.354 179.01C83.5189 178.779 82.7301 178.548 82.127 178.316L82.0342 178.131C82.5909 178.409 83.1013 178.687 83.6117 179.103C84.0756 179.473 84.4932 179.936 84.7716 180.398C85.0499 180.907 85.2355 181.462 85.2355 182.11C85.2355 183.174 84.9571 184.053 84.4468 184.794C83.89 185.534 83.1477 186.135 82.1734 186.505C81.1527 186.968 79.9928 187.153 78.6473 187.153ZM82.7301 193.954V193.353C82.7301 192.612 82.4981 192.104 82.0342 191.78C81.5702 191.502 80.9207 191.363 80.0856 191.363H76.3275C75.5852 191.363 74.982 191.317 74.4717 191.178C73.9613 191.086 73.5901 190.901 73.3118 190.716C73.0334 190.484 72.8014 190.253 72.6622 189.975C72.5231 189.698 72.4767 189.374 72.4767 189.05C72.4767 188.402 72.7086 187.893 73.1262 187.57C73.5438 187.246 74.1005 187.014 74.8428 186.922C75.5388 186.829 76.3275 186.783 77.209 186.829L78.7401 187.107C77.7194 187.153 76.977 187.246 76.4667 187.384C75.9563 187.523 75.7244 187.801 75.7244 188.217C75.7244 188.449 75.8171 188.634 76.0027 188.772C76.1883 188.911 76.4667 188.957 76.8379 188.957H80.7815C81.8486 188.957 82.7765 189.096 83.5653 189.328C84.354 189.559 84.9108 189.975 85.3283 190.53C85.7459 191.086 85.9315 191.872 85.9315 192.844V194H82.7301V193.954ZM78.6473 184.886C79.3432 184.886 79.9464 184.794 80.5031 184.562C81.0135 184.331 81.4311 184.007 81.7094 183.591C81.9878 183.174 82.127 182.665 82.127 182.064C82.127 181.462 81.9878 180.907 81.7094 180.491C81.4311 180.075 81.0135 179.704 80.5031 179.473C79.9928 179.242 79.3896 179.103 78.6473 179.103C77.9514 179.103 77.3482 179.242 76.7915 179.473C76.2347 179.704 75.8635 180.028 75.5388 180.491C75.2604 180.907 75.1212 181.462 75.1212 182.064C75.1212 182.665 75.2604 183.174 75.5388 183.591C75.8171 184.007 76.2347 184.331 76.7451 184.562C77.3482 184.747 77.9514 184.886 78.6473 184.886Z" fill="white"/>
<path d="M88.4834 176.928H91.6383V189.003H88.4834V176.928ZM97.2522 176.696C97.9946 176.696 98.6905 176.789 99.34 176.974C99.9896 177.159 100.546 177.483 101.01 177.853C101.474 178.269 101.845 178.778 102.124 179.38C102.402 179.981 102.495 180.721 102.495 181.6V189.003H99.34V182.202C99.34 181.184 99.108 180.444 98.5977 179.981C98.0873 179.518 97.2986 179.287 96.1851 179.287C95.35 179.287 94.5613 179.472 93.9117 179.75C93.2158 180.074 92.659 180.49 92.2415 180.953C91.8239 181.462 91.5919 181.971 91.4991 182.479L91.4527 181.23C91.5455 180.675 91.7311 180.12 92.0095 179.565C92.2878 179.01 92.7054 178.547 93.1694 178.084C93.6797 177.622 94.2365 177.298 94.9324 177.02C95.6284 176.743 96.3707 176.696 97.2522 176.696Z" fill="white"/>
<path d="M108.434 171.654V174.43H104.769V171.654H108.434ZM105.047 176.928H108.202V189.003H105.047V176.928Z" fill="white"/>
<path d="M110.011 176.927H119.383V179.38H110.011V176.927ZM113.12 173.643H116.275V189.003H113.12V173.643Z" fill="white"/>
<path d="M131.771 184.978H134.833C134.694 185.811 134.369 186.551 133.812 187.199C133.255 187.846 132.513 188.355 131.539 188.725C130.565 189.095 129.405 189.28 128.059 189.28C126.528 189.28 125.136 189.049 123.976 188.54C122.77 188.031 121.889 187.337 121.193 186.412C120.543 185.487 120.218 184.33 120.218 183.035C120.218 181.693 120.543 180.583 121.193 179.611C121.842 178.686 122.724 177.945 123.884 177.437C125.043 176.928 126.389 176.696 127.966 176.696C129.544 176.696 130.889 176.928 131.91 177.437C132.977 177.945 133.766 178.686 134.276 179.704C134.787 180.721 135.019 182.017 134.926 183.59H123.42C123.512 184.191 123.744 184.746 124.115 185.255C124.487 185.764 124.997 186.134 125.693 186.458C126.343 186.736 127.131 186.875 128.059 186.875C129.08 186.875 129.915 186.69 130.565 186.366C131.168 185.996 131.585 185.533 131.771 184.978ZM127.781 179.056C126.621 179.056 125.647 179.333 124.951 179.842C124.208 180.351 123.744 180.999 123.559 181.739H131.771C131.678 180.953 131.307 180.305 130.611 179.796C129.915 179.333 128.987 179.056 127.781 179.056Z" fill="white"/>
<path d="M100.5 50.3456C106.346 50.3456 111.821 52.6127 115.95 56.7303L141.607 82.315C145.736 86.4326 148.009 91.892 148.009 97.7214C148.009 103.551 145.736 109.01 141.607 113.128L115.95 138.713C111.821 142.83 106.346 145.097 100.5 145.097C94.6542 145.097 89.1794 142.83 85.0502 138.713L59.3933 113.128C55.264 109.01 52.9906 103.551 52.9906 97.7214C52.9906 91.892 55.264 86.4326 59.3933 82.315L85.0502 56.7303C89.1794 52.6127 94.6542 50.3456 100.5 50.3456ZM100.5 46.4131C93.9118 46.4131 87.2772 48.9114 82.2664 53.9543L56.6095 79.5391C46.5416 89.5787 46.5416 105.864 56.6095 115.95L82.2664 141.535C87.3236 146.578 93.9118 149.076 100.5 149.076C107.088 149.076 113.723 146.578 118.734 141.535L144.391 115.95C154.458 105.91 154.458 89.625 144.391 79.5391L118.734 53.9543C113.723 48.9114 107.135 46.4131 100.5 46.4131Z" fill="#0B733B"/>
<path d="M144.437 115.95L118.734 141.535C108.666 151.575 92.3343 151.575 82.22 141.535L56.5631 115.95C48.8614 108.27 47.052 96.9815 51.0884 87.5896C52.3411 87.2657 53.6402 87.127 54.9856 87.127C63.8472 87.127 70.9922 94.2981 70.9922 103.089C70.9922 105.541 70.4355 107.808 69.4612 109.89C70.7138 109.473 72.0129 109.242 73.4048 109.242C79.1579 109.242 83.983 113.174 85.2821 118.495C85.6997 118.402 86.1173 118.402 86.5812 118.402C91.0352 118.402 94.6541 121.919 94.8397 126.314C96.5564 125.435 98.4586 124.926 100.5 124.926C102.541 124.926 104.49 125.435 106.16 126.314C106.346 121.919 109.965 118.402 114.419 118.402C114.836 118.402 115.3 118.449 115.718 118.495C117.017 113.174 121.842 109.242 127.595 109.242C128.987 109.242 130.286 109.473 131.539 109.89C130.565 107.808 130.008 105.541 130.008 103.089C130.008 94.2518 137.153 87.127 146.014 87.127C147.36 87.127 148.659 87.312 149.912 87.5896C153.948 96.9352 152.139 108.27 144.437 115.95Z" fill="url(#paint0_radial)"/>
<path d="M106.253 100.128H100.5H94.7929L89.9678 143.155H100.5H111.031L106.253 100.128Z" fill="url(#paint1_linear)"/>
<path d="M103.237 100.128H100.5H97.809L95.5356 143.155H100.5H105.511L103.237 100.128Z" fill="url(#paint2_linear)"/>
<path d="M100.5 28C97.4375 28 89.9678 43.4989 89.9678 50.2074C89.9678 62.1439 89.9678 97.722 89.9678 97.722H100.5H111.031C111.031 97.722 111.031 62.1439 111.031 50.2074C111.031 43.5452 103.608 28 100.5 28Z" fill="white"/>
<path d="M106.995 43.9149C106.578 43.5911 104.722 42.2031 100.5 42.2031C96.2314 42.2031 94.3756 43.5911 94.0044 43.9149C93.958 43.9612 93.9116 44.0075 93.9116 44.1V45.2566C93.9116 45.4417 94.1436 45.5805 94.2828 45.4417C95.0251 44.9328 96.9274 43.9612 100.5 43.9612C104.072 43.9612 105.975 44.9328 106.717 45.4417C106.902 45.5342 107.088 45.4417 107.088 45.2566V44.1C107.088 44.0537 107.088 43.9612 106.995 43.9149Z" fill="#04D361"/>
<path d="M89.968 78.106C89.968 78.106 77.3019 88.1918 76.5132 102.627C76.4668 103.413 77.2555 104.061 77.9979 103.783C81.7095 102.627 84.2613 97.7225 89.968 97.7225V78.106Z" fill="#04D361"/>
<path d="M111.032 78.106C111.032 78.106 123.698 88.1918 124.487 102.627C124.533 103.413 123.744 104.061 123.002 103.783C119.29 102.627 116.738 97.7225 111.032 97.7225V78.106Z" fill="#04D361"/>
<path d="M100.5 97.7222H89.9678L92.2412 102.58C92.2412 102.58 98.5046 103.228 100.5 103.228C102.495 103.228 108.758 102.58 108.758 102.58L111.031 97.7222H100.5Z" fill="#04D361"/>
<path d="M100.5 78.106C99.3401 78.106 97.9482 90.1349 97.9482 103.089C97.9482 105.125 99.2473 107.161 100.5 107.161C101.799 107.161 103.052 105.125 103.052 103.089C103.098 90.1349 101.66 78.106 100.5 78.106Z" fill="#04D361"/>
<path d="M95.5822 155.091L88.6692 148.197C85.9319 145.468 85.9319 141.119 88.6692 138.389L95.5822 131.495C98.3196 128.766 102.681 128.766 105.418 131.495L112.331 138.389C115.069 141.119 115.069 145.468 112.331 148.197L105.418 155.091C102.727 157.774 98.3196 157.774 95.5822 155.091Z" fill="#06B656"/>
<path d="M105.557 137L103.887 136.769C103.841 136.769 103.794 136.769 103.748 136.815L103.052 137.741C103.005 137.787 103.005 137.879 103.005 137.926C103.005 137.972 102.959 138.064 102.913 138.018L102.309 137.879C102.217 137.879 102.124 137.879 102.078 137.972L99.7577 140.933C99.7113 140.979 99.6185 141.025 99.5721 140.979L98.6906 140.563C98.5978 140.517 98.505 140.517 98.4586 140.563L97.9947 140.887C97.9019 140.933 97.8091 140.933 97.7627 140.887L97.5307 140.794C97.3915 140.702 97.2059 140.794 97.2059 140.933L97.0668 141.627C97.0204 141.812 97.1132 141.951 97.2524 142.043L97.5771 142.228L98.6442 142.876L99.1546 143.2C99.2938 143.292 99.4793 143.292 99.6185 143.154L100.5 142.367C100.593 142.321 100.686 142.275 100.778 142.321L101.057 142.46C101.15 142.506 101.242 142.506 101.335 142.413L101.799 141.997C101.892 141.951 101.985 141.905 102.078 141.951L102.727 142.275C102.82 142.321 102.959 142.275 103.005 142.182L103.33 141.812L105.65 138.851C105.743 138.712 105.696 138.527 105.511 138.481L105 138.388C104.908 138.342 104.861 138.25 104.908 138.157L105.696 137.185C105.743 137.139 105.65 137 105.557 137Z" fill="white"/>
<path d="M97.9019 142.968C97.8555 142.922 97.8091 142.968 97.8091 143.015L98.0411 143.662C98.0411 143.709 98.0411 143.755 98.0411 143.801L97.8091 144.634C97.8091 144.68 97.8091 144.726 97.8555 144.773L98.4586 145.235C98.505 145.282 98.5978 145.282 98.6442 145.235L99.2938 144.68C99.3402 144.634 99.3865 144.634 99.4329 144.634L100.175 144.541C100.222 144.541 100.222 144.449 100.222 144.449L97.9019 142.968Z" fill="white"/>
<path d="M97.6699 145.143C97.6235 145.097 97.5771 145.097 97.5307 145.143L97.0203 145.374C96.9739 145.374 96.9739 145.421 96.9739 145.467L95.8604 148.197C95.8604 148.197 95.8604 148.197 95.9068 148.197L96.1388 148.104C96.1388 148.104 96.1388 148.104 96.1852 148.104V148.15L95.3965 149.446C95.3965 149.492 95.3965 149.492 95.4429 149.492L98.3194 146.577C98.3658 146.531 98.3658 146.531 98.3658 146.485L98.4122 145.745C98.4122 145.698 98.4122 145.652 98.3658 145.606L97.6699 145.143Z" fill="white"/>
<defs>
<radialGradient id="paint0_radial" cx="0" cy="0" r="1" gradientUnits="userSpaceOnUse" gradientTransform="translate(100.369 97.3505) scale(66.4134 66.2267)">
<stop stop-color="#68E5A0"/>
<stop offset="0.00567427" stop-color="#04D361"/>
<stop offset="0.584253" stop-color="#04D361" stop-opacity="0"/>
</radialGradient>
<linearGradient id="paint1_linear" x1="100.509" y1="100.135" x2="100.509" y2="156.534" gradientUnits="userSpaceOnUse">
<stop stop-color="#06B656"/>
<stop offset="0.380208" stop-color="#08994A" stop-opacity="0"/>
</linearGradient>
<linearGradient id="paint2_linear" x1="100.51" y1="100.135" x2="100.51" y2="156.534" gradientUnits="userSpaceOnUse">
<stop stop-color="#06B656"/>
<stop offset="0.4633" stop-color="#08994A" stop-opacity="0"/>
</linearGradient>
</defs>
</svg>
