<svg width="192" height="338" viewBox="0 0 192 338" fill="none" xmlns="http://www.w3.org/2000/svg">
<path d="M0 17C0 14.2386 2.23858 12 5 12H180V326H5C2.23858 326 0 323.761 0 321V17Z" fill="url(#paint0_linear1)"/>
<path d="M86.6667 127.888C87.6865 127.306 88.8355 127 90.0038 127C91.1722 127 92.3212 127.306 93.341 127.888C103.503 133.75 113.666 139.611 123.83 145.471C124.786 146.027 125.582 146.829 126.138 147.798C126.694 148.767 126.992 149.868 127 150.991V186.273C126.98 187.438 126.653 188.575 126.054 189.566C125.454 190.556 124.604 191.364 123.594 191.903C113.464 197.733 103.337 203.567 93.2126 209.403C92.1736 209.989 90.9996 210.281 89.8127 210.247C88.6258 210.214 87.4694 209.856 86.4639 209.211C83.428 207.413 80.3894 205.62 77.3484 203.831C76.6809 203.522 76.0825 203.077 75.5899 202.523C75.9776 201.999 76.6707 201.923 77.2328 201.689C78.4805 201.233 79.6836 200.66 80.8267 199.975C80.9707 199.888 81.1369 199.848 81.3038 199.858C81.4707 199.868 81.6309 199.929 81.7637 200.033C84.3615 201.553 86.9337 203.118 89.5392 204.622C90.0963 204.95 90.6584 204.515 91.1333 204.245C101.073 198.508 111.016 192.779 120.962 187.057C121.14 186.967 121.286 186.824 121.383 186.647C121.48 186.47 121.522 186.268 121.504 186.066C121.504 174.431 121.504 162.794 121.504 151.156C121.522 150.93 121.47 150.703 121.356 150.508C121.242 150.313 121.071 150.159 120.867 150.068C110.77 144.264 100.678 138.457 90.5917 132.647C90.4167 132.525 90.2095 132.46 89.9974 132.46C89.7853 132.46 89.5782 132.525 89.4032 132.647C79.3061 138.455 69.2151 144.265 59.1301 150.076C58.9254 150.165 58.7534 150.317 58.6386 150.512C58.5239 150.706 58.4722 150.932 58.4909 151.159C58.4909 162.794 58.4909 174.43 58.4909 186.069C58.4734 186.27 58.5167 186.472 58.6149 186.647C58.7131 186.822 58.8615 186.963 59.0402 187.049C61.7339 188.608 64.4285 190.162 67.1238 191.712C67.8713 192.183 68.7078 192.489 69.5788 192.608C70.4498 192.727 71.3356 192.658 72.1783 192.403C72.9086 192.122 73.5375 191.621 73.9811 190.965C74.4247 190.309 74.6617 189.531 74.6607 188.734C74.6735 177.166 74.6607 165.597 74.6607 154.031C74.6576 153.908 74.6801 153.786 74.7265 153.673C74.7729 153.56 74.8423 153.458 74.9301 153.374C75.0179 153.29 75.122 153.226 75.2358 153.186C75.3495 153.146 75.4702 153.131 75.5899 153.143C76.8734 153.143 78.1801 153.124 79.4739 153.143C79.599 153.149 79.7216 153.181 79.8336 153.239C79.9456 153.296 80.0446 153.376 80.1242 153.475C80.2038 153.574 80.2622 153.689 80.2957 153.812C80.3291 153.935 80.3369 154.064 80.3184 154.191C80.3184 165.833 80.3312 177.475 80.3184 189.114C80.4045 190.696 80.0736 192.272 79.3602 193.678C78.6469 195.084 77.5771 196.27 76.2625 197.111C74.5055 197.947 72.5821 198.354 70.6444 198.299C68.7068 198.245 66.808 197.732 65.0984 196.799C62.1361 195.289 59.3098 193.51 56.4013 191.892C55.3918 191.355 54.543 190.549 53.9444 189.56C53.3458 188.571 53.0196 187.436 53 186.273V150.991C53.0087 149.844 53.3181 148.721 53.8959 147.738C54.4738 146.755 55.299 145.948 56.2858 145.401C66.4171 139.566 76.544 133.729 86.6667 127.888Z" fill="#8CC84B"/>
<path d="M95.5007 152.32C99.9758 151.728 104.524 152.439 108.621 154.369C110.106 155.274 111.333 156.558 112.182 158.096C113.031 159.634 113.471 161.371 113.46 163.136C113.402 163.357 113.268 163.549 113.083 163.677C112.897 163.805 112.673 163.861 112.451 163.834C111.167 163.834 109.884 163.852 108.6 163.834C108.354 163.817 108.123 163.708 107.951 163.527C107.78 163.345 107.681 163.105 107.674 162.853C107.528 161.999 107.203 161.186 106.719 160.473C106.235 159.76 105.605 159.162 104.873 158.723C102.435 157.735 99.8034 157.35 97.1924 157.601C95.2683 157.54 93.3652 158.023 91.6938 158.998C91.1182 159.454 90.697 160.082 90.4893 160.795C90.2816 161.507 90.298 162.269 90.536 162.971C90.9468 163.97 92.0763 164.282 93.0004 164.588C98.3244 166.009 103.964 165.867 109.186 167.734C110.307 168.051 111.342 168.627 112.211 169.417C113.081 170.206 113.762 171.189 114.202 172.289C114.725 173.85 114.852 175.521 114.569 177.145C114.287 178.769 113.605 180.294 112.587 181.575C110.746 183.526 108.354 184.842 105.746 185.339C102.348 186.043 98.8625 186.194 95.4185 185.787C92.1133 185.594 88.944 184.377 86.3338 182.298C85.2982 181.329 84.485 180.139 83.9525 178.812C83.42 177.485 83.1812 176.054 83.2534 174.621C83.2767 174.39 83.3889 174.177 83.5655 174.03C83.742 173.882 83.9685 173.813 84.1955 173.835C85.479 173.835 86.7753 173.822 88.0666 173.835C88.1861 173.832 88.3049 173.854 88.4163 173.898C88.5276 173.943 88.6292 174.009 88.7152 174.094C88.8011 174.179 88.8697 174.28 88.917 174.393C88.9643 174.505 88.9894 174.625 88.9907 174.747C89.0552 175.561 89.282 176.353 89.6572 177.074C90.0324 177.795 90.5482 178.431 91.1727 178.941C93.9365 180.329 97.0249 180.903 100.091 180.597C102.657 180.794 105.217 180.152 107.401 178.763C107.904 178.261 108.269 177.635 108.462 176.946C108.654 176.256 108.668 175.527 108.5 174.831C108.187 173.667 106.993 173.125 105.969 172.771C100.714 171.073 95.0104 171.689 89.7967 169.77C88.7051 169.444 87.6957 168.88 86.8381 168.117C85.9806 167.354 85.2953 166.411 84.8295 165.351C84.2315 163.77 84.0805 162.048 84.3936 160.383C84.7068 158.719 85.4715 157.177 86.6008 155.934C89.061 153.717 92.1936 152.431 95.4725 152.294L95.5007 152.32Z" fill="#8CC84B"/>
<path d="M192 12C192 18.6274 186.627 24 180 24C173.373 24 168 18.6274 168 12C168 5.37256 173.373 0 180 0C186.627 0 192 5.37256 192 12Z" fill="#121214"/>
<path d="M176 53C176 50.791 177.791 49 180 49C182.209 49 184 50.791 184 53V77C184 79.209 182.209 81 180 81C177.791 81 176 79.209 176 77V53Z" fill="#121214"/>
<path d="M180 101C177.791 101 176 102.791 176 105V129C176 131.209 177.791 133 180 133C182.209 133 184 131.209 184 129V105C184 102.791 182.209 101 180 101Z" fill="#121214"/>
<path d="M180 153C177.791 153 176 154.791 176 157V181C176 183.209 177.791 185 180 185C182.209 185 184 183.209 184 181V157C184 154.791 182.209 153 180 153Z" fill="#121214"/>
<path d="M180 205C177.791 205 176 206.791 176 209V233C176 235.209 177.791 237 180 237C182.209 237 184 235.209 184 233V209C184 206.791 182.209 205 180 205Z" fill="#121214"/>
<path d="M176 261C176 258.791 177.791 257 180 257C182.209 257 184 258.791 184 261V285C184 287.209 182.209 289 180 289C177.791 289 176 287.209 176 285V261Z" fill="#121214"/>
<path d="M180 338C186.627 338 192 332.627 192 326C192 319.373 186.627 314 180 314C173.373 314 168 319.373 168 326C168 332.627 173.373 338 180 338Z" fill="#121214"/>
<defs>
<linearGradient id="paint0_linear1" x1="-33.5" y1="-75.5" x2="331.725" y2="183.767" gradientUnits="userSpaceOnUse">
<stop stop-color="#21381B"/>
<stop offset="1" stop-color="#121214"/>
</linearGradient>
</defs>
</svg>
