<svg width="192" height="338" viewBox="0 0 192 338" fill="none" xmlns="http://www.w3.org/2000/svg">
<path d="M0 17C0 14.2386 2.23858 12 5 12H180V326H5C2.23858 326 0 323.761 0 321V17Z" fill="url(#paint0_linear)"/>
<path d="M92.8876 199.897C92.1498 199.226 91.3801 198.553 90.6447 197.807C90.057 198.366 89.5061 198.889 88.9233 199.41C81.6464 205.862 74.1457 208.548 69.6994 205.937C65.3982 203.438 64.0432 196.056 65.7646 186.768C65.9483 185.762 66.1688 184.755 66.4262 183.748C65.654 183.514 64.9187 183.299 64.1833 183.047C55.0276 179.833 49 174.613 49 169.39C49 164.357 54.6243 159.472 63.4087 156.339C64.3924 156.003 65.4302 155.668 66.4975 155.369C66.2516 154.399 66.0573 153.466 65.8728 152.564C64.0333 143.136 65.3195 135.604 69.6576 133.068C74.1777 130.382 81.6784 133.255 89.211 140.004C89.6512 140.413 90.0939 140.862 90.571 141.308C91.2694 140.637 91.9309 139.966 92.6293 139.37C99.7611 133.058 106.854 130.419 111.192 132.956C115.712 135.564 117.037 143.62 115.016 153.578C114.905 154.214 114.77 154.81 114.612 155.449C115.532 155.71 116.45 156.007 117.296 156.306C126.264 159.439 132.073 164.325 131.999 169.47C131.999 174.727 125.787 179.912 116.26 183.119C115.746 183.269 115.232 183.456 114.716 183.603C114.937 184.349 115.082 185.095 115.23 185.84C117.141 195.5 115.67 203.406 111.224 206.017C110.056 206.685 108.713 207.025 107.35 206.999C103.275 206.992 98.1012 204.441 92.8876 199.897ZM100.093 186.21C97.9817 189.332 95.6611 192.322 93.1458 195.161C93.8442 195.862 94.5426 196.505 95.2411 197.101C101.306 202.396 106.893 204.373 109.505 202.845C110.302 202.192 110.954 201.393 111.421 200.497C111.888 199.6 112.162 198.623 112.225 197.625C112.755 193.924 112.605 190.163 111.782 186.511C111.671 185.84 111.536 185.169 111.342 184.461C107.638 185.285 103.88 185.869 100.093 186.21ZM69.2887 187.404C67.7837 195.352 68.8854 201.276 71.502 202.807C72.4291 203.175 73.4299 203.345 74.4338 203.305C75.4376 203.265 76.4198 203.015 77.3108 202.573C80.7769 201.189 83.9335 199.189 86.6116 196.68C87.1625 196.231 87.6764 195.71 88.2298 195.189C85.6591 192.349 83.2772 189.359 81.098 186.238C77.3256 185.938 73.5795 185.392 69.8863 184.601C69.6576 185.576 69.4732 186.507 69.2887 187.404ZM90.6841 192.624C92.3023 190.796 93.918 188.784 95.5362 186.546C93.918 186.621 92.2285 186.659 90.5365 186.659C88.8446 186.659 87.2658 186.621 85.6845 186.546C87.3371 188.744 88.9921 190.796 90.6816 192.624H90.6841ZM82.9621 156.227C81.5652 158.277 80.2053 160.435 78.9191 162.716C77.6329 164.953 76.4599 167.228 75.3901 169.496C76.4943 171.733 77.6698 174.007 78.956 176.321C80.2422 178.559 81.6021 180.763 82.999 182.846C85.4238 182.995 87.9617 183.08 90.5341 183.08C93.1064 183.08 95.6788 183.005 98.143 182.82C99.466 180.77 100.826 178.568 102.115 176.293C103.403 174.019 104.613 171.707 105.681 169.47C104.613 167.27 103.401 164.996 102.115 162.719C100.828 160.442 99.4685 158.277 98.1085 156.229C95.6493 156.042 93.1089 155.93 90.5365 155.93C87.9642 155.93 85.4262 156.04 82.9621 156.227ZM70.8331 181.174C73.3552 181.722 75.9079 182.133 78.4789 182.406C77.596 180.99 76.7156 179.571 75.8696 178.079C75.0606 176.625 74.2515 175.171 73.5161 173.717C72.4513 176.251 71.5684 178.755 70.8331 181.174ZM105.201 178.042C104.355 179.533 103.509 180.95 102.666 182.332C105.275 182.021 107.865 181.573 110.422 180.99C109.623 178.472 108.691 175.995 107.628 173.568C106.856 175.059 106.047 176.551 105.201 178.042ZM64.5473 159.769C57.0491 162.454 52.529 166.365 52.529 169.428C52.672 170.413 53.0182 171.362 53.5478 172.219C54.0775 173.077 54.7801 173.827 55.6154 174.426C58.4842 176.719 61.7742 178.489 65.3195 179.646C65.981 179.879 66.6795 180.057 67.3779 180.281C68.507 176.613 69.8695 173.014 71.4578 169.503C69.8664 166.051 68.5158 162.505 67.4148 158.885C66.4229 159.137 65.4671 159.432 64.5473 159.769ZM109.65 169.428C111.281 172.894 112.677 176.456 113.83 180.092C114.31 179.943 114.787 179.793 115.227 179.643C123.424 176.885 128.507 172.67 128.534 169.388C128.534 166.33 123.83 162.375 116.147 159.691C115.375 159.432 114.531 159.17 113.688 158.908C112.574 162.491 111.226 166.005 109.65 169.428ZM105.167 160.851C106.013 162.342 106.822 163.799 107.554 165.253C108.576 162.876 109.459 160.449 110.201 157.98C107.704 157.404 105.176 156.956 102.629 156.638C103.511 158.015 104.355 159.397 105.164 160.851H105.167ZM70.87 157.95C71.6078 160.337 72.4882 162.761 73.5161 165.257C74.2539 163.803 75.0606 162.349 75.8696 160.895C76.6787 159.441 77.5222 158.025 78.4051 156.643C75.759 156.973 73.2604 157.419 70.87 157.95ZM94.946 142.101C94.3213 142.659 93.6967 143.255 93.0696 143.854C95.6221 146.658 97.9681 149.626 100.091 152.737C103.831 153.08 107.541 153.679 111.192 154.528C111.339 153.969 111.438 153.408 111.561 152.849C113.282 144.272 112.222 137.708 109.428 136.069C108.815 135.742 108.12 135.581 107.417 135.602C104.414 135.588 99.8054 137.811 94.946 142.094V142.101ZM71.4209 136.163C68.8116 137.692 67.7812 143.807 69.3256 151.863C69.5101 152.72 69.6945 153.576 69.9134 154.471C73.5687 153.654 77.2772 153.068 81.0144 152.718C83.1446 149.603 85.5031 146.635 88.0724 143.835C87.6691 143.424 87.2264 143.052 86.8231 142.678C81.7079 138.08 76.7894 135.653 73.5776 135.653C72.8228 135.629 72.0758 135.805 71.4209 136.163ZM95.4599 152.421C93.944 150.336 92.3086 148.332 90.5611 146.418C88.9085 148.244 87.2535 150.259 85.6427 152.421C87.2608 152.346 88.8766 152.309 90.5316 152.309C92.1867 152.309 93.8442 152.339 95.4624 152.421H95.4599ZM83.1834 169.577C83.149 168.619 83.3138 167.663 83.6685 166.766C84.0233 165.868 84.5609 165.045 85.2506 164.345C85.9403 163.646 86.7686 163.082 87.6879 162.687C88.6072 162.292 89.5995 162.073 90.6079 162.043C92.6425 162.109 94.5667 162.939 95.9584 164.351C97.3502 165.764 98.096 167.643 98.0323 169.577C98.098 171.513 97.3527 173.395 95.9602 174.809C94.5677 176.223 92.6418 177.053 90.6054 177.119C89.5965 177.089 88.6037 176.87 87.684 176.474C86.7643 176.079 85.9359 175.514 85.2463 174.814C84.5567 174.113 84.0195 173.29 83.6654 172.391C83.3114 171.492 83.1476 170.536 83.1834 169.577Z" fill="#2AC7E3"/>
<path d="M192 12C192 18.6274 186.627 24 180 24C173.373 24 168 18.6274 168 12C168 5.37256 173.373 0 180 0C186.627 0 192 5.37256 192 12Z" fill="#121214"/>
<path d="M176 53C176 50.791 177.791 49 180 49C182.209 49 184 50.791 184 53V77C184 79.209 182.209 81 180 81C177.791 81 176 79.209 176 77V53Z" fill="#121214"/>
<path d="M180 101C177.791 101 176 102.791 176 105V129C176 131.209 177.791 133 180 133C182.209 133 184 131.209 184 129V105C184 102.791 182.209 101 180 101Z" fill="#121214"/>
<path d="M180 153C177.791 153 176 154.791 176 157V181C176 183.209 177.791 185 180 185C182.209 185 184 183.209 184 181V157C184 154.791 182.209 153 180 153Z" fill="#121214"/>
<path d="M180 205C177.791 205 176 206.791 176 209V233C176 235.209 177.791 237 180 237C182.209 237 184 235.209 184 233V209C184 206.791 182.209 205 180 205Z" fill="#121214"/>
<path d="M176 261C176 258.791 177.791 257 180 257C182.209 257 184 258.791 184 261V285C184 287.209 182.209 289 180 289C177.791 289 176 287.209 176 285V261Z" fill="#121214"/>
<path d="M180 338C186.627 338 192 332.627 192 326C192 319.373 186.627 314 180 314C173.373 314 168 319.373 168 326C168 332.627 173.373 338 180 338Z" fill="#121214"/>
<defs>
<linearGradient id="paint0_linear" x1="-33.5" y1="-75.5" x2="331.725" y2="183.767" gradientUnits="userSpaceOnUse">
<stop stop-color="#1A434D"/>
<stop offset="1" stop-color="#121214"/>
</linearGradient>
</defs>
</svg>
