<svg width="372" height="70" viewBox="0 0 372 70" fill="none" xmlns="http://www.w3.org/2000/svg">
<rect width="372" height="70" fill="#2F2F33"/>
<rect x="-141" y="-137" width="655" height="761" rx="12" fill="#202024"/>
<rect width="372" height="70" rx="5" fill="url(#111)"/>
<path d="M0 5C0 2.23858 2.23858 0 5 0H120V70H5C2.23858 70 0 67.7614 0 65V5Z" fill="url(#222)"/>
<path d="M60.4493 46.2534C60.1559 45.994 59.8499 45.7337 59.5576 45.4453C59.3239 45.6614 59.1048 45.8638 58.8731 46.0654C55.9799 48.5601 52.9977 49.5987 51.2299 48.5891C49.5198 47.6228 48.981 44.7683 49.6655 41.1771C49.7385 40.7879 49.8261 40.3986 49.9285 40.0093C49.6215 39.9189 49.3291 39.8358 49.0367 39.7381C45.3965 38.4953 43 36.4769 43 34.4576C43 32.5115 45.2362 30.6224 48.7288 29.4112C49.1199 29.281 49.5325 29.1517 49.9568 29.036C49.8591 28.6609 49.7818 28.3003 49.7085 27.9514C48.9771 24.306 49.4885 21.3936 51.2133 20.4129C53.0104 19.3743 55.9926 20.4852 58.9875 23.0947C59.1625 23.2529 59.3385 23.4265 59.5282 23.5991C59.8059 23.3397 60.0689 23.0803 60.3466 22.8498C63.1821 20.4093 66.002 19.3888 67.7268 20.3695C69.524 21.3783 70.051 24.4931 69.2472 28.3437C69.2032 28.5895 69.1495 28.82 69.0869 29.0668C69.4526 29.168 69.8173 29.2828 70.1536 29.3985C73.7196 30.6097 76.0291 32.4989 75.9997 34.4883C75.9997 36.5212 73.5299 38.526 69.742 39.7662C69.5376 39.824 69.3333 39.8963 69.128 39.9533C69.216 40.2416 69.2736 40.5299 69.3323 40.8183C70.092 44.5532 69.5073 47.6101 67.7395 48.6198C67.2752 48.8782 66.7413 49.0098 66.1995 48.9994C64.5794 48.9967 62.5221 48.0106 60.4493 46.2534ZM63.3141 40.9611C62.4746 42.1683 61.552 43.3244 60.5519 44.4221C60.8296 44.6933 61.1073 44.9419 61.385 45.1723C63.7962 47.2197 66.0177 47.9844 67.0561 47.3932C67.3732 47.1407 67.6323 46.832 67.818 46.4853C68.0038 46.1386 68.1124 45.761 68.1375 45.3748C68.3485 43.9438 68.2889 42.4898 67.9615 41.0777C67.9175 40.8183 67.8637 40.5589 67.7865 40.285C66.3139 40.6036 64.8197 40.8295 63.3141 40.9611ZM51.0666 41.423C50.4682 44.4962 50.9062 46.7867 51.9466 47.3787C52.3152 47.5211 52.7131 47.5869 53.1122 47.5712C53.5113 47.5556 53.9018 47.459 54.2561 47.2884C55.6342 46.7529 56.8892 45.9796 57.954 45.0096C58.173 44.8361 58.3774 44.6345 58.5974 44.433C57.5753 43.3349 56.6283 42.179 55.7618 40.972C54.262 40.8561 52.7726 40.6447 51.3042 40.3392C51.2133 40.7162 51.1399 41.0759 51.0666 41.423ZM59.5732 43.4414C60.2166 42.7345 60.859 41.9563 61.5023 41.0913C60.859 41.1202 60.1872 41.1347 59.5145 41.1347C58.8418 41.1347 58.2141 41.1202 57.5854 41.0913C58.2425 41.9409 58.9005 42.7345 59.5722 43.4414H59.5732ZM56.503 29.3678C55.9476 30.1605 55.4069 30.9948 54.8955 31.877C54.3842 32.742 53.9178 33.6215 53.4924 34.4983C53.9315 35.3633 54.3988 36.2428 54.9102 37.1376C55.4216 38.0027 55.9623 38.855 56.5177 39.6604C57.4817 39.7183 58.4908 39.7508 59.5136 39.7508C60.5363 39.7508 61.559 39.7219 62.5388 39.6505C63.0648 38.8577 63.6055 38.0063 64.1179 37.1268C64.6302 36.2473 65.1113 35.3533 65.5356 34.4883C65.1113 33.6378 64.6292 32.7583 64.1179 31.8779C63.6065 30.9975 63.0658 30.1605 62.5251 29.3687C61.5473 29.2964 60.5373 29.253 59.5145 29.253C58.4918 29.253 57.4827 29.2955 56.503 29.3678ZM51.6806 39.0141C52.6834 39.2259 53.6983 39.3849 54.7205 39.4905C54.3695 38.9427 54.0195 38.394 53.6831 37.8174C53.3614 37.2551 53.0397 36.6929 52.7474 36.1307C52.324 37.1105 51.973 38.0786 51.6806 39.0141ZM65.345 37.8029C65.0086 38.3796 64.6723 38.9273 64.3369 39.4615C65.3744 39.3414 66.404 39.1682 67.4208 38.9427C67.1033 37.9693 66.7326 37.0115 66.31 36.0728C66.003 36.6495 65.6813 37.2262 65.345 37.8029ZM49.1815 30.7372C46.2002 31.7757 44.4031 33.288 44.4031 34.4721C44.4599 34.853 44.5976 35.2198 44.8082 35.5514C45.0188 35.8831 45.2981 36.173 45.6302 36.4046C46.7708 37.2913 48.0789 37.9756 49.4885 38.423C49.7515 38.5134 50.0292 38.5821 50.3069 38.6688C50.7558 37.2505 51.2975 35.8586 51.929 34.501C51.2963 33.1666 50.7593 31.7951 50.3215 30.3955C49.9272 30.4931 49.5471 30.607 49.1815 30.7372ZM67.1138 34.4721C67.7623 35.8124 68.3175 37.1898 68.776 38.5956C68.9666 38.5378 69.1563 38.4799 69.3313 38.4221C72.5902 37.3555 74.6113 35.7258 74.622 34.4567C74.622 33.2744 72.7516 31.745 69.697 30.7073C69.39 30.607 69.0546 30.5058 68.7193 30.4045C68.2765 31.79 67.7403 33.1485 67.1138 34.4721ZM65.3313 31.1557C65.6676 31.7324 65.9893 32.2955 66.2807 32.8577C66.6867 31.9388 67.038 31.0001 67.3328 30.0457C66.3401 29.8227 65.3351 29.6495 64.3222 29.5269C64.6732 30.0592 65.0086 30.5934 65.3303 31.1557H65.3313ZM51.6953 30.0339C51.9886 30.9568 52.3387 31.8941 52.7474 32.8595C53.0407 32.2973 53.3614 31.7351 53.6831 31.1728C54.0048 30.6106 54.3402 30.0629 54.6912 29.5287C53.6391 29.6561 52.6457 29.8288 51.6953 30.0339ZM61.2677 23.9055C61.0193 24.1216 60.771 24.3521 60.5216 24.5835C61.5365 25.6677 62.4692 26.8153 63.3132 28.0183C64.8004 28.151 66.2754 28.3824 67.7268 28.7106C67.7855 28.4946 67.8246 28.2777 67.8735 28.0616C68.5579 24.7453 68.1365 22.2071 67.0258 21.5735C66.7819 21.447 66.5054 21.3845 66.2259 21.3927C65.0321 21.3873 63.1997 22.2469 61.2677 23.9028V23.9055ZM51.9143 21.6096C50.8769 22.2008 50.4672 24.5654 51.0813 27.6802C51.1546 28.0119 51.2279 28.3428 51.315 28.6889C52.7683 28.3727 54.2428 28.1463 55.7286 28.011C56.5756 26.8066 57.5133 25.6588 58.5348 24.5762C58.3744 24.4171 58.1985 24.2734 58.0381 24.1288C56.0043 22.3508 54.0488 21.4126 52.7718 21.4126C52.4717 21.4031 52.1747 21.4714 51.9143 21.6096ZM61.472 27.8962C60.8693 27.0901 60.2191 26.3152 59.5243 25.575C58.8672 26.281 58.2092 27.0601 57.5688 27.8962C58.2121 27.8673 58.8545 27.8528 59.5126 27.8528C60.1706 27.8528 60.8296 27.8646 61.473 27.8962H61.472ZM56.591 34.5299C56.5773 34.1593 56.6428 33.7898 56.7839 33.4427C56.9249 33.0956 57.1387 32.7775 57.4129 32.5069C57.6871 32.2363 58.0164 32.0183 58.3819 31.8656C58.7474 31.7128 59.142 31.6282 59.5429 31.6167C60.3518 31.6421 61.1169 31.9631 61.6702 32.5092C62.2236 33.0553 62.5201 33.782 62.4948 34.5299C62.5209 35.2784 62.2246 36.0059 61.6709 36.5526C61.1173 37.0994 60.3516 37.4206 59.5419 37.4459C59.1408 37.4343 58.746 37.3496 58.3804 37.1967C58.0147 37.0437 57.6854 36.8255 57.4112 36.5546C57.137 36.2837 56.9234 35.9653 56.7826 35.6179C56.6419 35.2704 56.5768 34.9007 56.591 34.5299Z" fill="#2AC7E3"/>
<rect x="0.999997" y="0.999997" width="370" height="68" rx="4" stroke="url(#333)" stroke-width="1.99999"/>
<path d="M157.77 27.7891H152.285V43H150.047V27.7891H144.574V25.9375H157.77V27.7891ZM165.199 32.2656C164.871 32.2109 164.516 32.1836 164.133 32.1836C162.711 32.1836 161.746 32.7891 161.238 34V43H159.07V30.3203H161.18L161.215 31.7852C161.926 30.6523 162.934 30.0859 164.238 30.0859C164.66 30.0859 164.98 30.1406 165.199 30.25V32.2656ZM169.559 43H167.391V30.3203H169.559V43ZM167.215 26.957C167.215 26.6055 167.32 26.3086 167.531 26.0664C167.75 25.8242 168.07 25.7031 168.492 25.7031C168.914 25.7031 169.234 25.8242 169.453 26.0664C169.672 26.3086 169.781 26.6055 169.781 26.957C169.781 27.3086 169.672 27.6016 169.453 27.8359C169.234 28.0703 168.914 28.1875 168.492 28.1875C168.07 28.1875 167.75 28.0703 167.531 27.8359C167.32 27.6016 167.215 27.3086 167.215 26.957ZM175.395 43H173.227V25H175.395V43ZM181.043 31.8555C182.004 30.6758 183.254 30.0859 184.793 30.0859C187.473 30.0859 188.824 31.5977 188.848 34.6211V43H186.68V34.6094C186.672 33.6953 186.461 33.0195 186.047 32.582C185.641 32.1445 185.004 31.9258 184.137 31.9258C183.434 31.9258 182.816 32.1133 182.285 32.4883C181.754 32.8633 181.34 33.3555 181.043 33.9648V43H178.875V25H181.043V31.8555ZM199.922 43C199.797 42.75 199.695 42.3047 199.617 41.6641C198.609 42.7109 197.406 43.2344 196.008 43.2344C194.758 43.2344 193.73 42.8828 192.926 42.1797C192.129 41.4688 191.73 40.5703 191.73 39.4844C191.73 38.1641 192.23 37.1406 193.23 36.4141C194.238 35.6797 195.652 35.3125 197.473 35.3125H199.582V34.3164C199.582 33.5586 199.355 32.957 198.902 32.5117C198.449 32.0586 197.781 31.832 196.898 31.832C196.125 31.832 195.477 32.0273 194.953 32.418C194.43 32.8086 194.168 33.2812 194.168 33.8359H191.988C191.988 33.2031 192.211 32.5938 192.656 32.0078C193.109 31.4141 193.719 30.9453 194.484 30.6016C195.258 30.2578 196.105 30.0859 197.027 30.0859C198.488 30.0859 199.633 30.4531 200.461 31.1875C201.289 31.9141 201.719 32.918 201.75 34.1992V40.0352C201.75 41.1992 201.898 42.125 202.195 42.8125V43H199.922ZM196.324 41.3477C197.004 41.3477 197.648 41.1719 198.258 40.8203C198.867 40.4688 199.309 40.0117 199.582 39.4492V36.8477H197.883C195.227 36.8477 193.898 37.625 193.898 39.1797C193.898 39.8594 194.125 40.3906 194.578 40.7734C195.031 41.1562 195.613 41.3477 196.324 41.3477Z" fill="#E1E1E6"/>
<path d="M217.301 36.7539H214.5V43H210.984V25.9375H217.324C219.34 25.9375 220.895 26.3867 221.988 27.2852C223.082 28.1836 223.629 29.4531 223.629 31.0938C223.629 32.2578 223.375 33.2305 222.867 34.0117C222.367 34.7852 221.605 35.4023 220.582 35.8633L224.273 42.8359V43H220.5L217.301 36.7539ZM214.5 33.9062H217.336C218.219 33.9062 218.902 33.6836 219.387 33.2383C219.871 32.7852 220.113 32.1641 220.113 31.375C220.113 30.5703 219.883 29.9375 219.422 29.4766C218.969 29.0156 218.27 28.7852 217.324 28.7852H214.5V33.9062ZM231.926 43.2344C230.066 43.2344 228.551 42.6641 227.379 41.5234C226.215 40.3828 225.633 38.8633 225.633 36.9648V36.6367C225.633 35.3633 225.879 34.2266 226.371 33.2266C226.863 32.2188 227.559 31.4453 228.457 30.9062C229.363 30.3594 230.395 30.0859 231.551 30.0859C233.285 30.0859 234.648 30.6328 235.641 31.7266C236.641 32.8203 237.141 34.3711 237.141 36.3789V37.7617H229.066C229.176 38.5898 229.504 39.2539 230.051 39.7539C230.605 40.2539 231.305 40.5039 232.148 40.5039C233.453 40.5039 234.473 40.0312 235.207 39.0859L236.871 40.9492C236.363 41.668 235.676 42.2305 234.809 42.6367C233.941 43.0352 232.98 43.2344 231.926 43.2344ZM231.539 32.8281C230.867 32.8281 230.32 33.0547 229.898 33.5078C229.484 33.9609 229.219 34.6094 229.102 35.4531H233.812V35.1836C233.797 34.4336 233.594 33.8555 233.203 33.4492C232.812 33.0352 232.258 32.8281 231.539 32.8281ZM246.422 43C246.266 42.6953 246.152 42.3164 246.082 41.8633C245.262 42.7773 244.195 43.2344 242.883 43.2344C241.641 43.2344 240.609 42.875 239.789 42.1562C238.977 41.4375 238.57 40.5312 238.57 39.4375C238.57 38.0938 239.066 37.0625 240.059 36.3438C241.059 35.625 242.5 35.2617 244.383 35.2539H245.941V34.5273C245.941 33.9414 245.789 33.4727 245.484 33.1211C245.188 32.7695 244.715 32.5938 244.066 32.5938C243.496 32.5938 243.047 32.7305 242.719 33.0039C242.398 33.2773 242.238 33.6523 242.238 34.1289H238.852C238.852 33.3945 239.078 32.7148 239.531 32.0898C239.984 31.4648 240.625 30.9766 241.453 30.625C242.281 30.2656 243.211 30.0859 244.242 30.0859C245.805 30.0859 247.043 30.4805 247.957 31.2695C248.879 32.0508 249.34 33.1523 249.34 34.5742V40.0703C249.348 41.2734 249.516 42.1836 249.844 42.8008V43H246.422ZM243.621 40.6445C244.121 40.6445 244.582 40.5352 245.004 40.3164C245.426 40.0898 245.738 39.7891 245.941 39.4141V37.2344H244.676C242.98 37.2344 242.078 37.8203 241.969 38.9922L241.957 39.1914C241.957 39.6133 242.105 39.9609 242.402 40.2344C242.699 40.5078 243.105 40.6445 243.621 40.6445ZM257.215 40.5039C257.84 40.5039 258.348 40.332 258.738 39.9883C259.129 39.6445 259.332 39.1875 259.348 38.6172H262.523C262.516 39.4766 262.281 40.2656 261.82 40.9844C261.359 41.6953 260.727 42.25 259.922 42.6484C259.125 43.0391 258.242 43.2344 257.273 43.2344C255.461 43.2344 254.031 42.6602 252.984 41.5117C251.938 40.3555 251.414 38.7617 251.414 36.7305V36.5078C251.414 34.5547 251.934 32.9961 252.973 31.832C254.012 30.668 255.438 30.0859 257.25 30.0859C258.836 30.0859 260.105 30.5391 261.059 31.4453C262.02 32.3438 262.508 33.543 262.523 35.043H259.348C259.332 34.3867 259.129 33.8555 258.738 33.4492C258.348 33.0352 257.832 32.8281 257.191 32.8281C256.402 32.8281 255.805 33.1172 255.398 33.6953C255 34.2656 254.801 35.1953 254.801 36.4844V36.8359C254.801 38.1406 255 39.0781 255.398 39.6484C255.797 40.2188 256.402 40.5039 257.215 40.5039ZM268.512 27.2031V30.3203H270.68V32.8047H268.512V39.1328C268.512 39.6016 268.602 39.9375 268.781 40.1406C268.961 40.3438 269.305 40.4453 269.812 40.4453C270.188 40.4453 270.52 40.418 270.809 40.3633V42.9297C270.145 43.1328 269.461 43.2344 268.758 43.2344C266.383 43.2344 265.172 42.0352 265.125 39.6367V32.8047H263.273V30.3203H265.125V27.2031H268.512ZM279.668 25.9375H283.184V37.75C283.184 38.8359 282.941 39.7969 282.457 40.6328C281.98 41.4609 281.305 42.1016 280.43 42.5547C279.555 43.0078 278.566 43.2344 277.465 43.2344C275.66 43.2344 274.254 42.7773 273.246 41.8633C272.238 40.9414 271.734 39.6406 271.734 37.9609H275.273C275.273 38.7969 275.449 39.4141 275.801 39.8125C276.152 40.2109 276.707 40.4102 277.465 40.4102C278.137 40.4102 278.672 40.1797 279.07 39.7188C279.469 39.2578 279.668 38.6016 279.668 37.75V25.9375ZM295.043 38.5234C295.043 37.8594 294.809 37.3516 294.34 37C293.871 36.6406 293.027 36.2656 291.809 35.875C290.59 35.4766 289.625 35.0859 288.914 34.7031C286.977 33.6562 286.008 32.2461 286.008 30.4727C286.008 29.5508 286.266 28.7305 286.781 28.0117C287.305 27.2852 288.051 26.7188 289.02 26.3125C289.996 25.9062 291.09 25.7031 292.301 25.7031C293.52 25.7031 294.605 25.9258 295.559 26.3711C296.512 26.8086 297.25 27.4297 297.773 28.2344C298.305 29.0391 298.57 29.9531 298.57 30.9766H295.055C295.055 30.1953 294.809 29.5898 294.316 29.1602C293.824 28.7227 293.133 28.5039 292.242 28.5039C291.383 28.5039 290.715 28.6875 290.238 29.0547C289.762 29.4141 289.523 29.8906 289.523 30.4844C289.523 31.0391 289.801 31.5039 290.355 31.8789C290.918 32.2539 291.742 32.6055 292.828 32.9336C294.828 33.5352 296.285 34.2812 297.199 35.1719C298.113 36.0625 298.57 37.1719 298.57 38.5C298.57 39.9766 298.012 41.1367 296.895 41.9805C295.777 42.8164 294.273 43.2344 292.383 43.2344C291.07 43.2344 289.875 42.9961 288.797 42.5195C287.719 42.0352 286.895 41.375 286.324 40.5391C285.762 39.7031 285.48 38.7344 285.48 37.6328H289.008C289.008 39.5156 290.133 40.457 292.383 40.457C293.219 40.457 293.871 40.2891 294.34 39.9531C294.809 39.6094 295.043 39.1328 295.043 38.5234Z" fill="#2AC7E3"/>
<path d="M116 1C116 3.20898 117.791 5 120 5C122.209 5 124 3.20898 124 1V0H116V1Z" fill="#202024"/>
<path d="M116 69C116 66.791 117.791 65 120 65C122.209 65 124 66.791 124 69V70H116V69Z" fill="#202024"/>
<path d="M120 48C118.895 48 118 48.8954 118 50V56C118 57.1046 118.895 58 120 58C121.105 58 122 57.1046 122 56V50C122 48.8954 121.105 48 120 48Z" fill="#202024"/>
<path d="M118 32C118 30.8954 118.895 30 120 30C121.105 30 122 30.8954 122 32V38C122 39.1046 121.105 40 120 40C118.895 40 118 39.1046 118 38V32Z" fill="#202024"/>
<path d="M120 12C118.895 12 118 12.8954 118 14V20C118 21.1046 118.895 22 120 22C121.105 22 122 21.1046 122 20V14C122 12.8954 121.105 12 120 12Z" fill="#202024"/>
<defs>
<linearGradient id="111" x1="186" y1="0" x2="186" y2="70" gradientUnits="userSpaceOnUse">
<stop stop-color="#313131"/>
<stop offset="1" stop-color="#313137" stop-opacity="0.25"/>
</linearGradient>
<linearGradient id="222" x1="-22.3333" y1="-19.5064" x2="44.1651" y2="121.662" gradientUnits="userSpaceOnUse">
<stop stop-color="#1A434D"/>
<stop offset="1" stop-color="#121214"/>
</linearGradient>
<linearGradient id="333" x1="95.5833" y1="7.4375" x2="102.795" y2="79.7704" gradientUnits="userSpaceOnUse">
<stop stop-color="#4DBCD6"/>
<stop offset="1" stop-color="#4DBCD6" stop-opacity="0.24"/>
</linearGradient>
</defs>
</svg>
