<svg width="372" height="70" viewBox="0 0 372 70" fill="none" xmlns="http://www.w3.org/2000/svg">
<rect width="372" height="70" fill="#2F2F33"/>
<rect x="-141" y="-329" width="655" height="761" rx="12" fill="#202024"/>
<rect width="372" height="70" rx="5" fill="url(#777)"/>
<path d="M0 5C0 2.23858 2.23858 0 5 0H120V70H5C2.23858 70 0 67.7614 0 65V5Z" fill="url(#888)"/>
<path d="M60.279 50.9998C54.0498 50.9998 49 45.3769 49 38.4408C49 32.7584 53.4759 25.8154 56.9323 21.5868C58.5688 19.5847 61.6613 18 61.6613 18C61.6613 18 60.0764 26.0919 64.3757 29.3058C68.1919 32.1586 71 35.87 71 39.135C71 45.673 66.5083 51 60.2791 51L60.279 50.9998Z" fill="#B13AF0"/>
<rect x="1" y="1" width="370" height="68" rx="4" stroke="url(#999)" stroke-width="2"/>
<path d="M157.77 27.7891H152.285V43H150.047V27.7891H144.574V25.9375H157.77V27.7891ZM165.199 32.2656C164.871 32.2109 164.516 32.1836 164.133 32.1836C162.711 32.1836 161.746 32.7891 161.238 34V43H159.07V30.3203H161.18L161.215 31.7852C161.926 30.6523 162.934 30.0859 164.238 30.0859C164.66 30.0859 164.98 30.1406 165.199 30.25V32.2656ZM169.559 43H167.391V30.3203H169.559V43ZM167.215 26.957C167.215 26.6055 167.32 26.3086 167.531 26.0664C167.75 25.8242 168.07 25.7031 168.492 25.7031C168.914 25.7031 169.234 25.8242 169.453 26.0664C169.672 26.3086 169.781 26.6055 169.781 26.957C169.781 27.3086 169.672 27.6016 169.453 27.8359C169.234 28.0703 168.914 28.1875 168.492 28.1875C168.07 28.1875 167.75 28.0703 167.531 27.8359C167.32 27.6016 167.215 27.3086 167.215 26.957ZM175.395 43H173.227V25H175.395V43ZM181.043 31.8555C182.004 30.6758 183.254 30.0859 184.793 30.0859C187.473 30.0859 188.824 31.5977 188.848 34.6211V43H186.68V34.6094C186.672 33.6953 186.461 33.0195 186.047 32.582C185.641 32.1445 185.004 31.9258 184.137 31.9258C183.434 31.9258 182.816 32.1133 182.285 32.4883C181.754 32.8633 181.34 33.3555 181.043 33.9648V43H178.875V25H181.043V31.8555ZM199.922 43C199.797 42.75 199.695 42.3047 199.617 41.6641C198.609 42.7109 197.406 43.2344 196.008 43.2344C194.758 43.2344 193.73 42.8828 192.926 42.1797C192.129 41.4688 191.73 40.5703 191.73 39.4844C191.73 38.1641 192.23 37.1406 193.23 36.4141C194.238 35.6797 195.652 35.3125 197.473 35.3125H199.582V34.3164C199.582 33.5586 199.355 32.957 198.902 32.5117C198.449 32.0586 197.781 31.832 196.898 31.832C196.125 31.832 195.477 32.0273 194.953 32.418C194.43 32.8086 194.168 33.2812 194.168 33.8359H191.988C191.988 33.2031 192.211 32.5938 192.656 32.0078C193.109 31.4141 193.719 30.9453 194.484 30.6016C195.258 30.2578 196.105 30.0859 197.027 30.0859C198.488 30.0859 199.633 30.4531 200.461 31.1875C201.289 31.9141 201.719 32.918 201.75 34.1992V40.0352C201.75 41.1992 201.898 42.125 202.195 42.8125V43H199.922ZM196.324 41.3477C197.004 41.3477 197.648 41.1719 198.258 40.8203C198.867 40.4688 199.309 40.0117 199.582 39.4492V36.8477H197.883C195.227 36.8477 193.898 37.625 193.898 39.1797C193.898 39.8594 194.125 40.3906 194.578 40.7734C195.031 41.1562 195.613 41.3477 196.324 41.3477Z" fill="#E1E1E6"/>
<path d="M221.25 35.6055H214.5V40.1758H222.422V43H210.984V25.9375H222.398V28.7852H214.5V32.8516H221.25V35.6055ZM227.836 43H224.438V25H227.836V43ZM234.211 43H230.812V30.3203H234.211V43ZM230.613 27.0391C230.613 26.5312 230.781 26.1133 231.117 25.7852C231.461 25.457 231.926 25.293 232.512 25.293C233.09 25.293 233.551 25.457 233.895 25.7852C234.238 26.1133 234.41 26.5312 234.41 27.0391C234.41 27.5547 234.234 27.9766 233.883 28.3047C233.539 28.6328 233.082 28.7969 232.512 28.7969C231.941 28.7969 231.48 28.6328 231.129 28.3047C230.785 27.9766 230.613 27.5547 230.613 27.0391ZM241.84 34.1055L243.973 30.3203H247.594L243.984 36.5312L247.746 43H244.113L241.852 39.0156L239.602 43H235.957L239.719 36.5312L236.121 30.3203H239.754L241.84 34.1055ZM252.797 43H249.398V30.3203H252.797V43ZM249.199 27.0391C249.199 26.5312 249.367 26.1133 249.703 25.7852C250.047 25.457 250.512 25.293 251.098 25.293C251.676 25.293 252.137 25.457 252.48 25.7852C252.824 26.1133 252.996 26.5312 252.996 27.0391C252.996 27.5547 252.82 27.9766 252.469 28.3047C252.125 28.6328 251.668 28.7969 251.098 28.7969C250.527 28.7969 250.066 28.6328 249.715 28.3047C249.371 27.9766 249.199 27.5547 249.199 27.0391ZM262.723 33.4961C262.262 33.4336 261.855 33.4023 261.504 33.4023C260.223 33.4023 259.383 33.8359 258.984 34.7031V43H255.598V30.3203H258.797L258.891 31.832C259.57 30.668 260.512 30.0859 261.715 30.0859C262.09 30.0859 262.441 30.1367 262.77 30.2383L262.723 33.4961Z" fill="#B13AF0"/>
<path d="M116 1C116 3.20898 117.791 5 120 5C122.209 5 124 3.20898 124 1V0H116V1Z" fill="#202024"/>
<path d="M116 69C116 66.791 117.791 65 120 65C122.209 65 124 66.791 124 69V70H116V69Z" fill="#202024"/>
<path d="M118 50C118 48.8954 118.895 48 120 48C121.105 48 122 48.8954 122 50V56C122 57.1046 121.105 58 120 58C118.895 58 118 57.1046 118 56V50Z" fill="#202024"/>
<path d="M118 32C118 30.8954 118.895 30 120 30C121.105 30 122 30.8954 122 32V38C122 39.1046 121.105 40 120 40C118.895 40 118 39.1046 118 38V32Z" fill="#202024"/>
<path d="M118 14C118 12.8954 118.895 12 120 12C121.105 12 122 12.8954 122 14V20C122 21.1046 121.105 22 120 22C118.895 22 118 21.1046 118 20V14Z" fill="#202024"/>
<defs>
<linearGradient id="777" x1="186" y1="0" x2="186" y2="70" gradientUnits="userSpaceOnUse">
<stop stop-color="#313131"/>
<stop offset="1" stop-color="#313137" stop-opacity="0.25"/>
</linearGradient>
<linearGradient id="888" x1="-22.3333" y1="-19.5064" x2="44.1651" y2="121.662" gradientUnits="userSpaceOnUse">
<stop stop-color="#2E2340"/>
<stop offset="1" stop-color="#121214"/>
</linearGradient>
<linearGradient id="999" x1="93" y1="7.4375" x2="100.554" y2="78.5632" gradientUnits="userSpaceOnUse">
<stop stop-color="#B13AF0"/>
<stop offset="1" stop-color="#B13AF0" stop-opacity="0.24"/>
</linearGradient>
</defs>
</svg>
