<svg width="372" height="70" viewBox="0 0 372 70" fill="none" xmlns="http://www.w3.org/2000/svg">
<rect width="372" height="70" fill="#2F2F33"/>
<rect x="-141" y="-233" width="655" height="761" rx="12" fill="#202024"/>
<rect width="372" height="70" rx="5" fill="url(#444)"/>
<rect width="120" height="70" fill="url(#555)"/>
<path d="M58.5586 17.3839C58.9996 17.1322 59.4964 17 60.0017 17C60.5069 17 61.0037 17.1322 61.4448 17.3839C65.8392 19.9188 70.2339 22.4534 74.6291 24.9876C75.0424 25.2279 75.3866 25.5749 75.6272 25.9938C75.8678 26.4127 75.9964 26.8888 76 27.3744V42.6317C75.9914 43.1352 75.8501 43.627 75.5908 44.0554C75.3316 44.4838 74.9641 44.8329 74.5269 45.0661C70.1466 47.5875 65.7674 50.1099 61.3893 52.6335C60.94 52.8873 60.4323 53.0134 59.919 52.9989C59.4058 52.9843 58.9057 52.8296 58.4709 52.5508C57.158 51.7733 55.8441 50.9977 54.529 50.224C54.2404 50.0905 53.9816 49.898 53.7686 49.6585C53.9362 49.4318 54.236 49.3989 54.4791 49.2981C55.0186 49.1009 55.5389 48.8528 56.0332 48.5569C56.0954 48.5193 56.1673 48.5016 56.2395 48.5061C56.3117 48.5105 56.3809 48.5369 56.4383 48.5818C57.5617 49.2391 58.674 49.9157 59.8007 50.5663C60.0416 50.708 60.2847 50.5198 60.4901 50.4031C64.7883 47.9225 69.088 45.445 73.3891 42.9705C73.4658 42.9315 73.5292 42.8697 73.571 42.7932C73.6128 42.7168 73.631 42.6293 73.6233 42.5421C73.6233 37.5108 73.6233 32.4787 73.6233 27.4458C73.6312 27.3479 73.6088 27.25 73.5595 27.1656C73.5101 27.0813 73.4362 27.0148 73.348 26.9755C68.9818 24.4655 64.6177 21.9543 60.2559 19.4421C60.1802 19.3892 60.0906 19.3609 59.9989 19.3609C59.9072 19.3609 59.8176 19.3892 59.7419 19.4421C55.3756 21.9536 51.0119 24.4659 46.6508 26.9789C46.5623 27.0172 46.488 27.0831 46.4383 27.1672C46.3887 27.2512 46.3663 27.3492 46.3744 27.447C46.3744 32.4783 46.3744 37.5104 46.3744 42.5433C46.3669 42.6302 46.3856 42.7175 46.4281 42.7933C46.4705 42.8691 46.5347 42.9297 46.612 42.9671C47.7768 43.6411 48.942 44.3132 50.1076 44.9834C50.4308 45.1874 50.7926 45.3195 51.1692 45.371C51.5458 45.4226 51.9289 45.3924 52.2933 45.2826C52.6091 45.161 52.8811 44.944 53.0729 44.6605C53.2647 44.377 53.3672 44.0405 53.3668 43.6959C53.3723 38.6933 53.3668 33.6906 53.3668 28.6891C53.3655 28.6361 53.3752 28.5833 53.3952 28.5343C53.4153 28.4854 53.4453 28.4413 53.4833 28.405C53.5212 28.3687 53.5663 28.341 53.6155 28.3238C53.6646 28.3065 53.7168 28.3001 53.7686 28.3049C54.3237 28.3049 54.8887 28.297 55.4482 28.3049C55.5023 28.3075 55.5553 28.3216 55.6037 28.3464C55.6522 28.3712 55.695 28.406 55.7294 28.4488C55.7638 28.4915 55.7891 28.5411 55.8035 28.5944C55.818 28.6477 55.8213 28.7035 55.8134 28.7583C55.8134 33.7926 55.8189 38.827 55.8134 43.8602C55.8506 44.5441 55.7075 45.2256 55.399 45.8337C55.0905 46.4419 54.6279 46.9545 54.0595 47.3181C53.2997 47.6796 52.4679 47.8556 51.63 47.8322C50.7921 47.8088 49.971 47.5866 49.2318 47.1832C47.9507 46.5304 46.7286 45.7609 45.4708 45.0616C45.0343 44.8291 44.6673 44.4806 44.4084 44.053C44.1495 43.6253 44.0085 43.1343 44 42.6317V27.3744C44.0038 26.8786 44.1376 26.3929 44.3874 25.9678C44.6373 25.5427 44.9942 25.1936 45.4209 24.957C49.802 22.4341 54.1812 19.9098 58.5586 17.3839Z" fill="#8CC84B"/>
<path d="M62.3787 27.9491C64.3139 27.6933 66.2805 28.0006 68.0522 28.8354C68.6943 29.2264 69.2252 29.7819 69.5922 30.4469C69.9592 31.1119 70.1497 31.8633 70.1447 32.6266C70.1198 32.722 70.0619 32.8051 69.9817 32.8605C69.9016 32.9159 69.8046 32.9399 69.7085 32.9281C69.1534 32.9281 68.5984 32.936 68.0434 32.9281C67.9369 32.921 67.8368 32.8737 67.7626 32.7953C67.6885 32.7169 67.6457 32.6131 67.6426 32.5042C67.5799 32.1345 67.439 31.7833 67.2299 31.4748C67.0207 31.1663 66.7483 30.9081 66.4315 30.7179C65.3775 30.2906 64.2393 30.1244 63.1102 30.2329C62.2782 30.2063 61.4552 30.4154 60.7324 30.837C60.4836 31.034 60.3014 31.3057 60.2116 31.6139C60.1218 31.9221 60.1289 32.2513 60.2318 32.5552C60.4094 32.987 60.8978 33.1219 61.2975 33.2545C63.5998 33.8688 66.0386 33.8076 68.2965 34.6145C68.7813 34.7519 69.2289 35.0009 69.6049 35.3424C69.9809 35.6838 70.2753 36.1087 70.4655 36.5844C70.692 37.2593 70.7467 37.9818 70.6245 38.6843C70.5024 39.3867 70.2074 40.0459 69.7673 40.5999C68.9712 41.4437 67.937 42.0126 66.809 42.2275C65.3397 42.5321 63.8325 42.5976 62.3432 42.4213C60.9138 42.3381 59.5434 41.8119 58.4146 40.9128C57.9668 40.4938 57.6151 39.9789 57.3849 39.4051C57.1546 38.8312 57.0513 38.2124 57.0825 37.5931C57.0926 37.4929 57.1412 37.4009 57.2175 37.3372C57.2938 37.2735 57.3918 37.2432 57.4899 37.2531C58.045 37.2531 58.6056 37.2474 59.1639 37.2531C59.2156 37.2519 59.267 37.2611 59.3151 37.2804C59.3633 37.2996 59.4072 37.3284 59.4444 37.3651C59.4816 37.4018 59.5112 37.4456 59.5317 37.4941C59.5521 37.5426 59.563 37.5947 59.5635 37.6475C59.5914 37.9995 59.6895 38.3419 59.8518 38.6537C60.014 38.9656 60.237 39.2403 60.5071 39.4609C61.7023 40.0613 63.0378 40.3094 64.3635 40.1772C65.4731 40.2624 66.5804 39.9845 67.525 39.3838C67.7421 39.1671 67.9001 38.8963 67.9835 38.5981C68.0668 38.3 68.0725 37.9848 68.0001 37.6837C67.8646 37.1805 67.3485 36.9459 66.9055 36.7929C64.6332 36.0585 62.1667 36.3248 59.9121 35.4952C59.44 35.3542 59.0035 35.1103 58.6327 34.7804C58.2619 34.4505 57.9655 34.0424 57.7641 33.5843C57.5055 32.9004 57.4402 32.1561 57.5756 31.4361C57.711 30.7162 58.0417 30.0495 58.5301 29.512C59.5939 28.5532 60.9486 27.9973 62.3665 27.9377L62.3787 27.9491Z" fill="#8CC84B"/>
<rect x="1" y="1" width="370" height="68" rx="4" stroke="url(#666)" stroke-width="2"/>
<path d="M116 1C116 3.20898 117.791 5 120 5C122.209 5 124 3.20898 124 1V0H116V1Z" fill="#202024"/>
<path d="M116 69C116 66.791 117.791 65 120 65C122.209 65 124 66.791 124 69V70H116V69Z" fill="#202024"/>
<path d="M118 50C118 48.8954 118.895 48 120 48C121.105 48 122 48.8954 122 50V56C122 57.1046 121.105 58 120 58C118.895 58 118 57.1046 118 56V50Z" fill="#202024"/>
<path d="M118 32C118 30.8954 118.895 30 120 30C121.105 30 122 30.8954 122 32V38C122 39.1046 121.105 40 120 40C118.895 40 118 39.1046 118 38V32Z" fill="#202024"/>
<path d="M118 14C118 12.8954 118.895 12 120 12C121.105 12 122 12.8954 122 14V20C122 21.1046 121.105 22 120 22C118.895 22 118 21.1046 118 20V14Z" fill="#202024"/>
<path d="M157.77 27.7891H152.285V43H150.047V27.7891H144.574V25.9375H157.77V27.7891ZM165.199 32.2656C164.871 32.2109 164.516 32.1836 164.133 32.1836C162.711 32.1836 161.746 32.7891 161.238 34V43H159.07V30.3203H161.18L161.215 31.7852C161.926 30.6523 162.934 30.0859 164.238 30.0859C164.66 30.0859 164.98 30.1406 165.199 30.25V32.2656ZM169.559 43H167.391V30.3203H169.559V43ZM167.215 26.957C167.215 26.6055 167.32 26.3086 167.531 26.0664C167.75 25.8242 168.07 25.7031 168.492 25.7031C168.914 25.7031 169.234 25.8242 169.453 26.0664C169.672 26.3086 169.781 26.6055 169.781 26.957C169.781 27.3086 169.672 27.6016 169.453 27.8359C169.234 28.0703 168.914 28.1875 168.492 28.1875C168.07 28.1875 167.75 28.0703 167.531 27.8359C167.32 27.6016 167.215 27.3086 167.215 26.957ZM175.395 43H173.227V25H175.395V43ZM181.043 31.8555C182.004 30.6758 183.254 30.0859 184.793 30.0859C187.473 30.0859 188.824 31.5977 188.848 34.6211V43H186.68V34.6094C186.672 33.6953 186.461 33.0195 186.047 32.582C185.641 32.1445 185.004 31.9258 184.137 31.9258C183.434 31.9258 182.816 32.1133 182.285 32.4883C181.754 32.8633 181.34 33.3555 181.043 33.9648V43H178.875V25H181.043V31.8555ZM199.922 43C199.797 42.75 199.695 42.3047 199.617 41.6641C198.609 42.7109 197.406 43.2344 196.008 43.2344C194.758 43.2344 193.73 42.8828 192.926 42.1797C192.129 41.4688 191.73 40.5703 191.73 39.4844C191.73 38.1641 192.23 37.1406 193.23 36.4141C194.238 35.6797 195.652 35.3125 197.473 35.3125H199.582V34.3164C199.582 33.5586 199.355 32.957 198.902 32.5117C198.449 32.0586 197.781 31.832 196.898 31.832C196.125 31.832 195.477 32.0273 194.953 32.418C194.43 32.8086 194.168 33.2812 194.168 33.8359H191.988C191.988 33.2031 192.211 32.5938 192.656 32.0078C193.109 31.4141 193.719 30.9453 194.484 30.6016C195.258 30.2578 196.105 30.0859 197.027 30.0859C198.488 30.0859 199.633 30.4531 200.461 31.1875C201.289 31.9141 201.719 32.918 201.75 34.1992V40.0352C201.75 41.1992 201.898 42.125 202.195 42.8125V43H199.922ZM196.324 41.3477C197.004 41.3477 197.648 41.1719 198.258 40.8203C198.867 40.4688 199.309 40.0117 199.582 39.4492V36.8477H197.883C195.227 36.8477 193.898 37.625 193.898 39.1797C193.898 39.8594 194.125 40.3906 194.578 40.7734C195.031 41.1562 195.613 41.3477 196.324 41.3477Z" fill="#E1E1E6"/>
<path d="M224.859 43H221.344L214.5 31.7734V43H210.984V25.9375H214.5L221.355 37.1875V25.9375H224.859V43ZM227.18 36.543C227.18 35.2852 227.422 34.1641 227.906 33.1797C228.391 32.1953 229.086 31.4336 229.992 30.8945C230.906 30.3555 231.965 30.0859 233.168 30.0859C234.879 30.0859 236.273 30.6094 237.352 31.6562C238.438 32.7031 239.043 34.125 239.168 35.9219L239.191 36.7891C239.191 38.7344 238.648 40.2969 237.562 41.4766C236.477 42.6484 235.02 43.2344 233.191 43.2344C231.363 43.2344 229.902 42.6484 228.809 41.4766C227.723 40.3047 227.18 38.7109 227.18 36.6953V36.543ZM230.566 36.7891C230.566 37.9922 230.793 38.9141 231.246 39.5547C231.699 40.1875 232.348 40.5039 233.191 40.5039C234.012 40.5039 234.652 40.1914 235.113 39.5664C235.574 38.9336 235.805 37.9258 235.805 36.543C235.805 35.3633 235.574 34.4492 235.113 33.8008C234.652 33.1523 234.004 32.8281 233.168 32.8281C232.34 32.8281 231.699 33.1523 231.246 33.8008C230.793 34.4414 230.566 35.4375 230.566 36.7891ZM240.75 36.5664C240.75 34.5898 241.191 33.0156 242.074 31.8438C242.965 30.6719 244.18 30.0859 245.719 30.0859C246.953 30.0859 247.973 30.5469 248.777 31.4688V25H252.176V43H249.117L248.953 41.6523C248.109 42.707 247.023 43.2344 245.695 43.2344C244.203 43.2344 243.004 42.6484 242.098 41.4766C241.199 40.2969 240.75 38.6602 240.75 36.5664ZM244.137 36.8125C244.137 38 244.344 38.9102 244.758 39.543C245.172 40.1758 245.773 40.4922 246.562 40.4922C247.609 40.4922 248.348 40.0508 248.777 39.168V34.1641C248.355 33.2812 247.625 32.8398 246.586 32.8398C244.953 32.8398 244.137 34.1641 244.137 36.8125ZM260.637 43.2344C258.777 43.2344 257.262 42.6641 256.09 41.5234C254.926 40.3828 254.344 38.8633 254.344 36.9648V36.6367C254.344 35.3633 254.59 34.2266 255.082 33.2266C255.574 32.2188 256.27 31.4453 257.168 30.9062C258.074 30.3594 259.105 30.0859 260.262 30.0859C261.996 30.0859 263.359 30.6328 264.352 31.7266C265.352 32.8203 265.852 34.3711 265.852 36.3789V37.7617H257.777C257.887 38.5898 258.215 39.2539 258.762 39.7539C259.316 40.2539 260.016 40.5039 260.859 40.5039C262.164 40.5039 263.184 40.0312 263.918 39.0859L265.582 40.9492C265.074 41.668 264.387 42.2305 263.52 42.6367C262.652 43.0352 261.691 43.2344 260.637 43.2344ZM260.25 32.8281C259.578 32.8281 259.031 33.0547 258.609 33.5078C258.195 33.9609 257.93 34.6094 257.812 35.4531H262.523V35.1836C262.508 34.4336 262.305 33.8555 261.914 33.4492C261.523 33.0352 260.969 32.8281 260.25 32.8281ZM267.961 41.3359C267.961 40.7969 268.141 40.3594 268.5 40.0234C268.867 39.6875 269.324 39.5195 269.871 39.5195C270.426 39.5195 270.883 39.6875 271.242 40.0234C271.609 40.3594 271.793 40.7969 271.793 41.3359C271.793 41.8672 271.613 42.3008 271.254 42.6367C270.895 42.9648 270.434 43.1289 269.871 43.1289C269.316 43.1289 268.859 42.9648 268.5 42.6367C268.141 42.3008 267.961 41.8672 267.961 41.3359ZM278.355 30.3203V43.6914C278.355 45.0898 277.984 46.1758 277.242 46.9492C276.5 47.7305 275.43 48.1211 274.031 48.1211C273.445 48.1211 272.887 48.0547 272.355 47.9219V45.2383C272.762 45.3086 273.117 45.3438 273.422 45.3438C274.445 45.3438 274.957 44.8008 274.957 43.7148V30.3203H278.355ZM274.688 27.0391C274.688 26.5312 274.855 26.1133 275.191 25.7852C275.535 25.457 276 25.293 276.586 25.293C277.172 25.293 277.633 25.457 277.969 25.7852C278.312 26.1133 278.484 26.5312 278.484 27.0391C278.484 27.5547 278.309 27.9766 277.957 28.3047C277.613 28.6328 277.156 28.7969 276.586 28.7969C276.016 28.7969 275.555 28.6328 275.203 28.3047C274.859 27.9766 274.688 27.5547 274.688 27.0391ZM287.871 39.4961C287.871 39.082 287.664 38.7578 287.25 38.5234C286.844 38.2812 286.188 38.0664 285.281 37.8789C282.266 37.2461 280.758 35.9648 280.758 34.0352C280.758 32.9102 281.223 31.9727 282.152 31.2227C283.09 30.4648 284.312 30.0859 285.82 30.0859C287.43 30.0859 288.715 30.4648 289.676 31.2227C290.645 31.9805 291.129 32.9648 291.129 34.1758H287.742C287.742 33.6914 287.586 33.293 287.273 32.9805C286.961 32.6602 286.473 32.5 285.809 32.5C285.238 32.5 284.797 32.6289 284.484 32.8867C284.172 33.1445 284.016 33.4727 284.016 33.8711C284.016 34.2461 284.191 34.5508 284.543 34.7852C284.902 35.0117 285.504 35.2109 286.348 35.3828C287.191 35.5469 287.902 35.7344 288.48 35.9453C290.27 36.6016 291.164 37.7383 291.164 39.3555C291.164 40.5117 290.668 41.4492 289.676 42.168C288.684 42.8789 287.402 43.2344 285.832 43.2344C284.77 43.2344 283.824 43.0469 282.996 42.6719C282.176 42.2891 281.531 41.7695 281.062 41.1133C280.594 40.4492 280.359 39.7344 280.359 38.9688H283.57C283.602 39.5703 283.824 40.0312 284.238 40.3516C284.652 40.6719 285.207 40.832 285.902 40.832C286.551 40.832 287.039 40.7109 287.367 40.4688C287.703 40.2188 287.871 39.8945 287.871 39.4961Z" fill="#8CC84B"/>
<defs>
<linearGradient id="444" x1="186" y1="0" x2="186" y2="70" gradientUnits="userSpaceOnUse">
<stop stop-color="#313131"/>
<stop offset="1" stop-color="#313137" stop-opacity="0.25"/>
</linearGradient>
<linearGradient id="555" x1="-22.3333" y1="-19.5064" x2="44.1651" y2="121.662" gradientUnits="userSpaceOnUse">
<stop stop-color="#21381B"/>
<stop offset="1" stop-color="#121214"/>
</linearGradient>
<linearGradient id="666" x1="98.1667" y1="7" x2="104.919" y2="78.1971" gradientUnits="userSpaceOnUse">
<stop stop-color="#8CC84B"/>
<stop offset="1" stop-color="#8CC84B" stop-opacity="0.25"/>
</linearGradient>
</defs>
</svg>
