<svg width="372" height="70" viewBox="0 0 372 70" fill="none" xmlns="http://www.w3.org/2000/svg">
<rect width="372" height="70" fill="#2F2F33"/>
<rect x="-141" y="-425" width="655" height="761" rx="12" fill="#202024"/>
<rect width="372" height="70" rx="5" fill="url(#123)"/>
<path d="M0 5C0 2.23858 2.23858 0 5 0H120V70H5C2.23858 70 0 67.7614 0 65V5Z" fill="url(#456)"/>
<path d="M60.4493 47.2534C60.1559 46.994 59.8499 46.7337 59.5576 46.4453C59.3239 46.6614 59.1048 46.8638 58.8731 47.0654C55.9799 49.5601 52.9977 50.5987 51.2299 49.5891C49.5198 48.6228 48.981 45.7683 49.6655 42.1771C49.7385 41.7879 49.8261 41.3986 49.9285 41.0093C49.6215 40.9189 49.3291 40.8358 49.0367 40.7381C45.3965 39.4953 43 37.4769 43 35.4576C43 33.5115 45.2362 31.6224 48.7288 30.4112C49.1199 30.281 49.5325 30.1517 49.9568 30.036C49.8591 29.6609 49.7818 29.3003 49.7085 28.9514C48.9771 25.306 49.4885 22.3936 51.2133 21.4129C53.0104 20.3743 55.9926 21.4852 58.9875 24.0947C59.1625 24.2529 59.3385 24.4265 59.5282 24.5991C59.8059 24.3397 60.0689 24.0803 60.3466 23.8498C63.1821 21.4093 66.002 20.3888 67.7268 21.3695C69.524 22.3783 70.051 25.4931 69.2472 29.3437C69.2032 29.5895 69.1495 29.82 69.0869 30.0668C69.4526 30.168 69.8173 30.2828 70.1536 30.3985C73.7196 31.6097 76.0291 33.4989 75.9997 35.4883C75.9997 37.5212 73.5299 39.526 69.742 40.7662C69.5376 40.824 69.3333 40.8963 69.128 40.9533C69.216 41.2416 69.2736 41.5299 69.3323 41.8183C70.092 45.5532 69.5073 48.6101 67.7395 49.6198C67.2752 49.8782 66.7413 50.0098 66.1995 49.9994C64.5794 49.9967 62.5221 49.0106 60.4493 47.2534ZM63.3141 41.9611C62.4746 43.1683 61.552 44.3244 60.5519 45.4221C60.8296 45.6933 61.1073 45.9419 61.385 46.1723C63.7962 48.2197 66.0177 48.9844 67.0561 48.3932C67.3732 48.1407 67.6323 47.832 67.818 47.4853C68.0038 47.1386 68.1124 46.761 68.1375 46.3748C68.3485 44.9438 68.2889 43.4898 67.9615 42.0777C67.9175 41.8183 67.8637 41.5589 67.7865 41.285C66.3139 41.6036 64.8197 41.8295 63.3141 41.9611ZM51.0666 42.423C50.4682 45.4962 50.9062 47.7867 51.9466 48.3787C52.3152 48.5211 52.7131 48.5869 53.1122 48.5712C53.5113 48.5556 53.9018 48.459 54.2561 48.2884C55.6342 47.7529 56.8892 46.9796 57.954 46.0096C58.173 45.8361 58.3774 45.6345 58.5974 45.433C57.5753 44.3349 56.6283 43.179 55.7618 41.972C54.262 41.8561 52.7726 41.6447 51.3042 41.3392C51.2133 41.7162 51.1399 42.0759 51.0666 42.423ZM59.5732 44.4414C60.2166 43.7345 60.859 42.9563 61.5023 42.0913C60.859 42.1202 60.1872 42.1347 59.5145 42.1347C58.8418 42.1347 58.2141 42.1202 57.5854 42.0913C58.2425 42.9409 58.9005 43.7345 59.5722 44.4414H59.5732ZM56.503 30.3678C55.9476 31.1605 55.4069 31.9948 54.8955 32.877C54.3842 33.742 53.9178 34.6215 53.4924 35.4983C53.9315 36.3633 54.3988 37.2428 54.9102 38.1376C55.4216 39.0027 55.9623 39.855 56.5177 40.6604C57.4817 40.7183 58.4908 40.7508 59.5136 40.7508C60.5363 40.7508 61.559 40.7219 62.5388 40.6505C63.0648 39.8577 63.6055 39.0063 64.1179 38.1268C64.6302 37.2473 65.1113 36.3533 65.5356 35.4883C65.1113 34.6378 64.6292 33.7583 64.1179 32.8779C63.6065 31.9975 63.0658 31.1605 62.5251 30.3687C61.5473 30.2964 60.5373 30.253 59.5145 30.253C58.4918 30.253 57.4827 30.2955 56.503 30.3678ZM51.6806 40.0141C52.6834 40.2259 53.6983 40.3849 54.7205 40.4905C54.3695 39.9427 54.0195 39.394 53.6831 38.8174C53.3614 38.2551 53.0397 37.6929 52.7474 37.1307C52.324 38.1105 51.973 39.0786 51.6806 40.0141ZM65.345 38.8029C65.0086 39.3796 64.6723 39.9273 64.3369 40.4615C65.3744 40.3414 66.404 40.1682 67.4208 39.9427C67.1033 38.9693 66.7326 38.0115 66.31 37.0728C66.003 37.6495 65.6813 38.2262 65.345 38.8029ZM49.1815 31.7372C46.2002 32.7757 44.4031 34.288 44.4031 35.4721C44.4599 35.853 44.5976 36.2198 44.8082 36.5514C45.0188 36.8831 45.2981 37.173 45.6302 37.4046C46.7708 38.2913 48.0789 38.9756 49.4885 39.423C49.7515 39.5134 50.0292 39.5821 50.3069 39.6688C50.7558 38.2505 51.2975 36.8586 51.929 35.501C51.2963 34.1666 50.7593 32.7951 50.3215 31.3955C49.9272 31.4931 49.5471 31.607 49.1815 31.7372ZM67.1138 35.4721C67.7623 36.8124 68.3175 38.1898 68.776 39.5956C68.9666 39.5378 69.1563 39.4799 69.3313 39.4221C72.5902 38.3555 74.6113 36.7258 74.622 35.4567C74.622 34.2744 72.7516 32.745 69.697 31.7073C69.39 31.607 69.0546 31.5058 68.7193 31.4045C68.2765 32.79 67.7403 34.1485 67.1138 35.4721ZM65.3313 32.1557C65.6676 32.7324 65.9893 33.2955 66.2807 33.8577C66.6867 32.9388 67.038 32.0001 67.3328 31.0457C66.3401 30.8227 65.3351 30.6495 64.3222 30.5269C64.6732 31.0592 65.0086 31.5934 65.3303 32.1557H65.3313ZM51.6953 31.0339C51.9886 31.9568 52.3387 32.8941 52.7474 33.8595C53.0407 33.2973 53.3614 32.7351 53.6831 32.1728C54.0048 31.6106 54.3402 31.0629 54.6912 30.5287C53.6391 30.6561 52.6457 30.8288 51.6953 31.0339ZM61.2677 24.9055C61.0193 25.1216 60.771 25.3521 60.5216 25.5835C61.5365 26.6677 62.4692 27.8153 63.3132 29.0183C64.8004 29.151 66.2754 29.3824 67.7268 29.7106C67.7855 29.4946 67.8246 29.2777 67.8735 29.0616C68.5579 25.7453 68.1365 23.2071 67.0258 22.5735C66.7819 22.447 66.5054 22.3845 66.2259 22.3927C65.0321 22.3873 63.1997 23.2469 61.2677 24.9028V24.9055ZM51.9143 22.6096C50.8769 23.2008 50.4672 25.5654 51.0813 28.6802C51.1546 29.0119 51.2279 29.3428 51.315 29.6889C52.7683 29.3727 54.2428 29.1463 55.7286 29.011C56.5756 27.8066 57.5133 26.6588 58.5348 25.5762C58.3744 25.4171 58.1985 25.2734 58.0381 25.1288C56.0043 23.3508 54.0488 22.4126 52.7718 22.4126C52.4717 22.4031 52.1747 22.4714 51.9143 22.6096ZM61.472 28.8962C60.8693 28.0901 60.2191 27.3152 59.5243 26.575C58.8672 27.281 58.2092 28.0601 57.5688 28.8962C58.2121 28.8673 58.8545 28.8528 59.5126 28.8528C60.1706 28.8528 60.8296 28.8646 61.473 28.8962H61.472ZM56.591 35.5299C56.5773 35.1593 56.6428 34.7898 56.7839 34.4427C56.9249 34.0956 57.1387 33.7775 57.4129 33.5069C57.6871 33.2363 58.0164 33.0183 58.3819 32.8656C58.7474 32.7128 59.142 32.6282 59.5429 32.6167C60.3518 32.6421 61.1169 32.9631 61.6702 33.5092C62.2236 34.0553 62.5201 34.782 62.4948 35.5299C62.5209 36.2784 62.2246 37.0059 61.6709 37.5526C61.1173 38.0994 60.3516 38.4206 59.5419 38.4459C59.1408 38.4343 58.746 38.3496 58.3804 38.1967C58.0147 38.0437 57.6854 37.8255 57.4112 37.5546C57.137 37.2837 56.9234 36.9653 56.7826 36.6179C56.6419 36.2704 56.5768 35.9007 56.591 35.5299Z" fill="#4763FF"/>
<rect x="1" y="1" width="370" height="68" rx="4" stroke="url(#789)" stroke-width="2"/>
<path d="M157.77 27.7891H152.285V43H150.047V27.7891H144.574V25.9375H157.77V27.7891ZM165.199 32.2656C164.871 32.2109 164.516 32.1836 164.133 32.1836C162.711 32.1836 161.746 32.7891 161.238 34V43H159.07V30.3203H161.18L161.215 31.7852C161.926 30.6523 162.934 30.0859 164.238 30.0859C164.66 30.0859 164.98 30.1406 165.199 30.25V32.2656ZM169.559 43H167.391V30.3203H169.559V43ZM167.215 26.957C167.215 26.6055 167.32 26.3086 167.531 26.0664C167.75 25.8242 168.07 25.7031 168.492 25.7031C168.914 25.7031 169.234 25.8242 169.453 26.0664C169.672 26.3086 169.781 26.6055 169.781 26.957C169.781 27.3086 169.672 27.6016 169.453 27.8359C169.234 28.0703 168.914 28.1875 168.492 28.1875C168.07 28.1875 167.75 28.0703 167.531 27.8359C167.32 27.6016 167.215 27.3086 167.215 26.957ZM175.395 43H173.227V25H175.395V43ZM181.043 31.8555C182.004 30.6758 183.254 30.0859 184.793 30.0859C187.473 30.0859 188.824 31.5977 188.848 34.6211V43H186.68V34.6094C186.672 33.6953 186.461 33.0195 186.047 32.582C185.641 32.1445 185.004 31.9258 184.137 31.9258C183.434 31.9258 182.816 32.1133 182.285 32.4883C181.754 32.8633 181.34 33.3555 181.043 33.9648V43H178.875V25H181.043V31.8555ZM199.922 43C199.797 42.75 199.695 42.3047 199.617 41.6641C198.609 42.7109 197.406 43.2344 196.008 43.2344C194.758 43.2344 193.73 42.8828 192.926 42.1797C192.129 41.4688 191.73 40.5703 191.73 39.4844C191.73 38.1641 192.23 37.1406 193.23 36.4141C194.238 35.6797 195.652 35.3125 197.473 35.3125H199.582V34.3164C199.582 33.5586 199.355 32.957 198.902 32.5117C198.449 32.0586 197.781 31.832 196.898 31.832C196.125 31.832 195.477 32.0273 194.953 32.418C194.43 32.8086 194.168 33.2812 194.168 33.8359H191.988C191.988 33.2031 192.211 32.5938 192.656 32.0078C193.109 31.4141 193.719 30.9453 194.484 30.6016C195.258 30.2578 196.105 30.0859 197.027 30.0859C198.488 30.0859 199.633 30.4531 200.461 31.1875C201.289 31.9141 201.719 32.918 201.75 34.1992V40.0352C201.75 41.1992 201.898 42.125 202.195 42.8125V43H199.922ZM196.324 41.3477C197.004 41.3477 197.648 41.1719 198.258 40.8203C198.867 40.4688 199.309 40.0117 199.582 39.4492V36.8477H197.883C195.227 36.8477 193.898 37.625 193.898 39.1797C193.898 39.8594 194.125 40.3906 194.578 40.7734C195.031 41.1562 195.613 41.3477 196.324 41.3477Z" fill="#E1E1E6"/>
<path d="M217.301 36.7539H214.5V43H210.984V25.9375H217.324C219.34 25.9375 220.895 26.3867 221.988 27.2852C223.082 28.1836 223.629 29.4531 223.629 31.0938C223.629 32.2578 223.375 33.2305 222.867 34.0117C222.367 34.7852 221.605 35.4023 220.582 35.8633L224.273 42.8359V43H220.5L217.301 36.7539ZM214.5 33.9062H217.336C218.219 33.9062 218.902 33.6836 219.387 33.2383C219.871 32.7852 220.113 32.1641 220.113 31.375C220.113 30.5703 219.883 29.9375 219.422 29.4766C218.969 29.0156 218.27 28.7852 217.324 28.7852H214.5V33.9062ZM231.926 43.2344C230.066 43.2344 228.551 42.6641 227.379 41.5234C226.215 40.3828 225.633 38.8633 225.633 36.9648V36.6367C225.633 35.3633 225.879 34.2266 226.371 33.2266C226.863 32.2188 227.559 31.4453 228.457 30.9062C229.363 30.3594 230.395 30.0859 231.551 30.0859C233.285 30.0859 234.648 30.6328 235.641 31.7266C236.641 32.8203 237.141 34.3711 237.141 36.3789V37.7617H229.066C229.176 38.5898 229.504 39.2539 230.051 39.7539C230.605 40.2539 231.305 40.5039 232.148 40.5039C233.453 40.5039 234.473 40.0312 235.207 39.0859L236.871 40.9492C236.363 41.668 235.676 42.2305 234.809 42.6367C233.941 43.0352 232.98 43.2344 231.926 43.2344ZM231.539 32.8281C230.867 32.8281 230.32 33.0547 229.898 33.5078C229.484 33.9609 229.219 34.6094 229.102 35.4531H233.812V35.1836C233.797 34.4336 233.594 33.8555 233.203 33.4492C232.812 33.0352 232.258 32.8281 231.539 32.8281ZM246.422 43C246.266 42.6953 246.152 42.3164 246.082 41.8633C245.262 42.7773 244.195 43.2344 242.883 43.2344C241.641 43.2344 240.609 42.875 239.789 42.1562C238.977 41.4375 238.57 40.5312 238.57 39.4375C238.57 38.0938 239.066 37.0625 240.059 36.3438C241.059 35.625 242.5 35.2617 244.383 35.2539H245.941V34.5273C245.941 33.9414 245.789 33.4727 245.484 33.1211C245.188 32.7695 244.715 32.5938 244.066 32.5938C243.496 32.5938 243.047 32.7305 242.719 33.0039C242.398 33.2773 242.238 33.6523 242.238 34.1289H238.852C238.852 33.3945 239.078 32.7148 239.531 32.0898C239.984 31.4648 240.625 30.9766 241.453 30.625C242.281 30.2656 243.211 30.0859 244.242 30.0859C245.805 30.0859 247.043 30.4805 247.957 31.2695C248.879 32.0508 249.34 33.1523 249.34 34.5742V40.0703C249.348 41.2734 249.516 42.1836 249.844 42.8008V43H246.422ZM243.621 40.6445C244.121 40.6445 244.582 40.5352 245.004 40.3164C245.426 40.0898 245.738 39.7891 245.941 39.4141V37.2344H244.676C242.98 37.2344 242.078 37.8203 241.969 38.9922L241.957 39.1914C241.957 39.6133 242.105 39.9609 242.402 40.2344C242.699 40.5078 243.105 40.6445 243.621 40.6445ZM257.215 40.5039C257.84 40.5039 258.348 40.332 258.738 39.9883C259.129 39.6445 259.332 39.1875 259.348 38.6172H262.523C262.516 39.4766 262.281 40.2656 261.82 40.9844C261.359 41.6953 260.727 42.25 259.922 42.6484C259.125 43.0391 258.242 43.2344 257.273 43.2344C255.461 43.2344 254.031 42.6602 252.984 41.5117C251.938 40.3555 251.414 38.7617 251.414 36.7305V36.5078C251.414 34.5547 251.934 32.9961 252.973 31.832C254.012 30.668 255.438 30.0859 257.25 30.0859C258.836 30.0859 260.105 30.5391 261.059 31.4453C262.02 32.3438 262.508 33.543 262.523 35.043H259.348C259.332 34.3867 259.129 33.8555 258.738 33.4492C258.348 33.0352 257.832 32.8281 257.191 32.8281C256.402 32.8281 255.805 33.1172 255.398 33.6953C255 34.2656 254.801 35.1953 254.801 36.4844V36.8359C254.801 38.1406 255 39.0781 255.398 39.6484C255.797 40.2188 256.402 40.5039 257.215 40.5039ZM268.512 27.2031V30.3203H270.68V32.8047H268.512V39.1328C268.512 39.6016 268.602 39.9375 268.781 40.1406C268.961 40.3438 269.305 40.4453 269.812 40.4453C270.188 40.4453 270.52 40.418 270.809 40.3633V42.9297C270.145 43.1328 269.461 43.2344 268.758 43.2344C266.383 43.2344 265.172 42.0352 265.125 39.6367V32.8047H263.273V30.3203H265.125V27.2031H268.512ZM292.641 43H289.125L282.281 31.7734V43H278.766V25.9375H282.281L289.137 37.1875V25.9375H292.641V43ZM302.836 43C302.68 42.6953 302.566 42.3164 302.496 41.8633C301.676 42.7773 300.609 43.2344 299.297 43.2344C298.055 43.2344 297.023 42.875 296.203 42.1562C295.391 41.4375 294.984 40.5312 294.984 39.4375C294.984 38.0938 295.48 37.0625 296.473 36.3438C297.473 35.625 298.914 35.2617 300.797 35.2539H302.355V34.5273C302.355 33.9414 302.203 33.4727 301.898 33.1211C301.602 32.7695 301.129 32.5938 300.48 32.5938C299.91 32.5938 299.461 32.7305 299.133 33.0039C298.812 33.2773 298.652 33.6523 298.652 34.1289H295.266C295.266 33.3945 295.492 32.7148 295.945 32.0898C296.398 31.4648 297.039 30.9766 297.867 30.625C298.695 30.2656 299.625 30.0859 300.656 30.0859C302.219 30.0859 303.457 30.4805 304.371 31.2695C305.293 32.0508 305.754 33.1523 305.754 34.5742V40.0703C305.762 41.2734 305.93 42.1836 306.258 42.8008V43H302.836ZM300.035 40.6445C300.535 40.6445 300.996 40.5352 301.418 40.3164C301.84 40.0898 302.152 39.7891 302.355 39.4141V37.2344H301.09C299.395 37.2344 298.492 37.8203 298.383 38.9922L298.371 39.1914C298.371 39.6133 298.52 39.9609 298.816 40.2344C299.113 40.5078 299.52 40.6445 300.035 40.6445ZM312.41 27.2031V30.3203H314.578V32.8047H312.41V39.1328C312.41 39.6016 312.5 39.9375 312.68 40.1406C312.859 40.3438 313.203 40.4453 313.711 40.4453C314.086 40.4453 314.418 40.418 314.707 40.3633V42.9297C314.043 43.1328 313.359 43.2344 312.656 43.2344C310.281 43.2344 309.07 42.0352 309.023 39.6367V32.8047H307.172V30.3203H309.023V27.2031H312.41ZM320.039 43H316.641V30.3203H320.039V43ZM316.441 27.0391C316.441 26.5312 316.609 26.1133 316.945 25.7852C317.289 25.457 317.754 25.293 318.34 25.293C318.918 25.293 319.379 25.457 319.723 25.7852C320.066 26.1133 320.238 26.5312 320.238 27.0391C320.238 27.5547 320.062 27.9766 319.711 28.3047C319.367 28.6328 318.91 28.7969 318.34 28.7969C317.77 28.7969 317.309 28.6328 316.957 28.3047C316.613 27.9766 316.441 27.5547 316.441 27.0391ZM327.586 38.8633L329.941 30.3203H333.48L329.203 43H325.969L321.691 30.3203H325.23L327.586 38.8633ZM340.652 43.2344C338.793 43.2344 337.277 42.6641 336.105 41.5234C334.941 40.3828 334.359 38.8633 334.359 36.9648V36.6367C334.359 35.3633 334.605 34.2266 335.098 33.2266C335.59 32.2188 336.285 31.4453 337.184 30.9062C338.09 30.3594 339.121 30.0859 340.277 30.0859C342.012 30.0859 343.375 30.6328 344.367 31.7266C345.367 32.8203 345.867 34.3711 345.867 36.3789V37.7617H337.793C337.902 38.5898 338.23 39.2539 338.777 39.7539C339.332 40.2539 340.031 40.5039 340.875 40.5039C342.18 40.5039 343.199 40.0312 343.934 39.0859L345.598 40.9492C345.09 41.668 344.402 42.2305 343.535 42.6367C342.668 43.0352 341.707 43.2344 340.652 43.2344ZM340.266 32.8281C339.594 32.8281 339.047 33.0547 338.625 33.5078C338.211 33.9609 337.945 34.6094 337.828 35.4531H342.539V35.1836C342.523 34.4336 342.32 33.8555 341.93 33.4492C341.539 33.0352 340.984 32.8281 340.266 32.8281Z" fill="#4763FF"/>
<path d="M116 1C116 3.20898 117.791 5 120 5C122.209 5 124 3.20898 124 1V0H116V1Z" fill="#202024"/>
<path d="M116 69C116 66.791 117.791 65 120 65C122.209 65 124 66.791 124 69V70H116V69Z" fill="#202024"/>
<path d="M118 50C118 48.8954 118.895 48 120 48C121.105 48 122 48.8954 122 50V56C122 57.1046 121.105 58 120 58C118.895 58 118 57.1046 118 56V50Z" fill="#202024"/>
<path d="M118 32C118 30.8954 118.895 30 120 30C121.105 30 122 30.8954 122 32V38C122 39.1046 121.105 40 120 40C118.895 40 118 39.1046 118 38V32Z" fill="#202024"/>
<path d="M118 14C118 12.8954 118.895 12 120 12C121.105 12 122 12.8954 122 14V20C122 21.1046 121.105 22 120 22C118.895 22 118 21.1046 118 20V14Z" fill="#202024"/>
<defs>
<linearGradient id="123" x1="186" y1="0" x2="186" y2="70" gradientUnits="userSpaceOnUse">
<stop stop-color="#313131"/>
<stop offset="1" stop-color="#313137" stop-opacity="0.25"/>
</linearGradient>
<linearGradient id="456" x1="-22.3333" y1="-19.5064" x2="44.1651" y2="121.662" gradientUnits="userSpaceOnUse">
<stop stop-color="#153779"/>
<stop offset="1" stop-color="#121214"/>
</linearGradient>
<linearGradient id="789" x1="95.5833" y1="7.4375" x2="102.795" y2="79.7704" gradientUnits="userSpaceOnUse">
<stop stop-color="#4763FF"/>
<stop offset="1" stop-color="#4763FF" stop-opacity="0.25"/>
</linearGradient>
</defs>
</svg>
